<svg xmlns="http://www.w3.org/2000/svg" viewBox="0 0 813 525"><g id="geometry"><g transform="translate(0.000000,525.000000) scale(0.100000,-0.100000)"
fill="#f1f1f1" stroke="none">
<path d="M346 5146 c-9 -45 -76 -107 -144 -131 l-52 -19 -2 -1905 -3 -1906
-25 -45 c-17 -30 -33 -46 -49 -48 l-24 -4 6 -121 c6 -127 28 -230 73 -340 21
-53 24 -76 24 -183 l0 -122 48 -17 c79 -29 125 -65 142 -113 l14 -42 3707 0
3706 0 6 28 c9 46 43 78 122 113 l75 34 0 121 c0 105 3 128 26 185 41 105 65
217 71 342 6 112 5 117 -14 117 -28 0 -52 30 -69 86 -12 40 -14 326 -14 1934
l0 1886 -37 13 c-89 31 -163 99 -163 149 l0 22 -3709 0 -3709 0 -6 -34z m90
-72 c-26 -20 -66 -56 -88 -80 -22 -24 -45 -41 -51 -37 -6 3 -7 1 -3 -5 4 -7
-11 -37 -33 -69 l-41 -56 0 60 c0 59 1 61 31 72 49 17 124 77 144 115 17 31
25 36 54 36 l34 0 -47 -36z m7090 21 c27 -8 73 -33 102 -55 41 -31 61 -40 93
-40 22 0 39 4 37 9 -1 6 -29 30 -62 55 l-58 46 34 0 c28 0 36 -6 53 -36 20
-38 95 -98 144 -115 30 -11 31 -13 31 -71 l0 -61 -30 42 c-17 23 -28 47 -24
53 4 6 3 8 -4 4 -5 -3 -20 6 -31 21 l-20 28 -1 -48 c0 -35 6 -58 22 -80 l23
-32 6 -1905 c5 -1889 6 -1906 27 -2070 40 -299 42 -261 -13 -340 -58 -86 -171
-192 -256 -243 l-64 -37 -3475 0 -3475 0 -65 37 c-77 45 -212 175 -265 256
l-39 58 23 182 c12 100 26 243 31 317 5 74 9 946 10 1942 0 1823 0 1822 32
1823 3 0 10 4 15 9 5 5 2 6 -6 1 -9 -5 -12 -3 -9 6 3 8 10 13 16 12 6 -2 9 3
6 10 -6 16 130 152 153 152 10 1 17 6 16 13 -2 6 8 19 22 28 68 44 -83 43
3531 43 2996 1 3426 -1 3470 -14z m-7295 -4010 c-5 -78 -9 616 -10 1742 0
1029 2 1880 7 1890 10 25 14 -3473 3 -3632z m7667 1735 c-1 -1031 -5 -1830 -8
-1775 -12 158 -11 3683 0 3665 6 -10 9 -694 8 -1890z m-7749 -1917 c-1 -156
-1 -157 -15 -103 -8 30 -17 95 -21 144 -5 79 -4 90 12 102 11 8 20 14 22 14 2
0 3 -71 2 -157z m7858 48 c-4 -47 -13 -111 -21 -141 -14 -55 -14 -54 -15 98
l-1 153 21 -12 c21 -11 21 -16 16 -98z m-7687 -616 c24 -27 31 -38 15 -24 -17
14 -49 34 -72 44 -41 17 -43 20 -43 59 l0 41 27 -35 c15 -19 48 -57 73 -85z
m7580 76 c0 -34 -4 -40 -31 -51 -17 -7 -46 -24 -65 -37 -29 -19 -25 -11 28 51
35 41 64 75 66 75 1 1 2 -16 2 -38z m-166 -151 c-17 -26 -34 -40 -48 -40 -17
0 -13 7 24 40 25 21 46 39 48 40 1 0 -10 -18 -24 -40z m-7294 -23 l24 -17 -26
0 c-20 0 -31 9 -48 38 l-22 37 23 -21 c13 -11 35 -28 49 -37z"/>
<path d="M379 4691 l-29 -29 0 -257 0 -257 29 -29 29 -29 1877 0 1877 0 34 34
34 34 0 245 0 246 -34 35 -33 36 -1877 0 -1878 0 -29 -29z m3761 -34 l25 -13
3 -236 2 -237 -23 -16 c-21 -14 -220 -15 -1870 -13 -1497 3 -1848 5 -1859 16
-10 10 -14 67 -16 220 -4 237 0 269 31 282 12 5 817 9 1852 9 1456 1 1835 -2
1855 -12z"/>
<path d="M4368 4704 c-15 -8 -32 -23 -38 -34 -14 -25 -14 -505 0 -531 26 -48
38 -49 523 -49 l455 0 31 29 31 29 0 252 c0 153 -4 259 -10 271 -26 48 -39 49
-517 49 -376 -1 -452 -3 -475 -16z m928 -59 l25 -25 -3 -225 c-2 -167 -6 -227
-16 -237 -10 -10 -108 -14 -448 -16 l-434 -3 -25 26 -26 25 1 216 c1 214 2
217 25 240 l24 24 426 0 426 0 25 -25z"/>
<path d="M5464 4686 l-34 -34 0 -247 0 -247 34 -34 34 -34 779 0 c706 0 781 2
803 16 50 34 50 33 50 297 l0 249 -34 34 -34 34 -782 0 -782 0 -34 -34z m1576
-29 l25 -13 3 -234 c2 -230 2 -235 -19 -252 -20 -17 -72 -18 -769 -18 -697 0
-749 1 -769 18 -21 17 -21 22 -19 252 l3 234 25 13 c19 10 187 13 760 13 573
0 741 -3 760 -13z"/>
<path d="M7179 4691 l-29 -29 0 -257 0 -257 31 -29 31 -29 255 0 255 0 29 29
29 29 0 257 0 257 -29 29 -29 29 -257 0 -257 0 -29 -29z m537 -46 c20 -27 16
-467 -4 -487 -19 -19 -475 -19 -494 0 -10 10 -14 70 -16 237 l-3 225 26 25 25
26 226 -3 c212 -3 227 -4 240 -23z"/>
<path d="M4353 3964 l-33 -31 0 -252 c0 -154 4 -260 10 -272 26 -48 39 -49
515 -49 476 0 489 1 515 49 6 12 10 117 10 270 0 250 0 250 -24 278 l-24 28
-468 5 -468 5 -33 -31z m949 -42 c10 -10 14 -70 16 -237 l3 -225 -25 -25 -25
-25 -426 0 -426 0 -25 25 -25 25 1 216 c1 215 2 217 26 240 l24 25 434 -3
c340 -2 438 -6 448 -16z"/>
<path d="M379 3961 l-29 -29 0 -257 0 -257 29 -29 29 -29 1877 0 1877 0 34 34
34 34 0 247 0 247 -34 34 -34 34 -1877 0 -1877 0 -29 -29z m3770 -38 c21 -18
21 -23 19 -253 l-3 -234 -25 -13 c-37 -19 -3703 -14 -3722 5 -10 10 -14 67
-16 220 -4 237 0 269 31 282 12 5 820 9 1858 9 1735 1 1838 0 1858 -16z"/>
<path d="M5466 3959 l-36 -31 0 -250 0 -250 34 -34 34 -34 782 0 782 0 34 34
34 34 0 249 c0 247 0 248 -24 278 l-24 30 -791 3 -790 2 -35 -31z m1583 -36
c21 -18 21 -23 19 -253 l-3 -234 -25 -13 c-19 -10 -187 -13 -760 -13 -573 0
-741 3 -760 13 l-25 13 -3 234 c-2 230 -2 235 19 253 20 16 72 17 769 17 697
0 749 -1 769 -17z"/>
<path d="M7179 3961 l-29 -29 0 -252 c0 -153 4 -259 10 -271 24 -44 54 -49
315 -49 l247 0 29 29 29 29 0 257 0 257 -29 29 -29 29 -257 0 -257 0 -29 -29z
m531 -41 c19 -19 20 -33 20 -243 0 -177 -3 -227 -14 -243 -13 -18 -30 -19
-240 -22 l-226 -3 -25 25 -25 25 0 210 c0 215 6 256 37 264 10 3 116 5 236 6
205 1 218 0 237 -19z"/>
<path d="M409 3253 c-58 -24 -60 -36 -57 -318 l3 -257 28 -24 28 -24 1876 0
1875 0 34 34 34 34 0 246 0 246 -32 35 -33 36 -1864 2 c-1405 1 -1871 -1
-1892 -10z m3740 -60 c21 -18 21 -23 19 -253 l-3 -234 -25 -13 c-20 -10 -394
-12 -1863 -10 l-1839 2 -19 24 c-17 21 -19 41 -19 242 0 206 1 220 20 239 20
20 33 20 1864 20 1741 0 1845 -1 1865 -17z"/>
<path d="M4353 3234 l-33 -31 0 -253 0 -252 34 -34 34 -34 451 0 c328 0 457 3
476 12 51 23 55 46 55 314 l0 247 -32 29 -33 30 -459 2 -460 1 -33 -31z m943
-38 c18 -14 19 -28 19 -245 0 -208 -2 -232 -18 -248 -16 -17 -48 -18 -452 -18
-404 0 -436 1 -452 18 -16 16 -18 40 -18 248 0 217 1 231 19 245 29 21 873 21
902 0z"/>
<path d="M5514 3262 c-10 -2 -34 -18 -51 -35 l-33 -31 0 -249 0 -249 34 -34
34 -34 782 0 782 0 34 34 34 34 0 252 0 252 -29 29 c-16 16 -40 29 -53 29
-378 3 -1520 4 -1534 2z m1540 -70 c14 -17 16 -46 14 -253 l-3 -233 -25 -13
c-19 -10 -187 -13 -760 -13 -573 0 -741 3 -760 13 l-25 13 -3 234 c-2 230 -2
235 19 253 20 16 72 17 774 17 719 0 753 -1 769 -18z"/>
<path d="M7183 3234 l-33 -31 0 -247 c0 -268 4 -291 55 -314 18 -8 102 -12
271 -12 l246 0 29 29 29 29 0 256 0 256 -27 30 -28 31 -254 2 -255 2 -33 -31z
m527 -44 c19 -19 20 -33 20 -235 0 -139 -4 -223 -11 -239 -16 -34 -51 -38
-286 -34 -169 3 -195 5 -210 21 -16 16 -18 40 -18 248 0 217 1 231 19 245 16
11 66 14 243 14 210 0 224 -1 243 -20z"/>
<path d="M401 2526 c-47 -26 -50 -44 -51 -309 l0 -249 34 -34 34 -34 1871 0
1870 0 36 35 35 36 0 250 0 251 -34 34 -34 34 -1869 0 c-1531 -1 -1872 -3
-1892 -14z m3751 -63 c16 -15 18 -36 18 -241 0 -196 -2 -228 -17 -244 -15 -17
-87 -18 -1869 -18 l-1853 0 -15 22 c-23 33 -23 443 0 476 l15 22 1851 0 c1709
0 1853 -1 1870 -17z"/>
<path d="M4354 2506 l-34 -34 0 -250 0 -250 25 -30 c13 -16 22 -32 19 -35 -4
-3 206 -6 466 -7 l471 -1 35 35 34 34 0 252 0 252 -34 34 -34 34 -457 0 -457
0 -34 -34z m947 -43 c11 -12 14 -65 14 -243 0 -178 -3 -231 -14 -243 -12 -15
-57 -17 -456 -17 -399 0 -444 2 -456 17 -20 24 -20 462 0 486 12 15 56 17 456
17 399 0 444 -2 456 -17z"/>
<path d="M5464 2506 l-34 -34 0 -251 0 -250 35 -36 36 -35 780 0 781 0 34 34
35 35 -1 266 c-1 147 -4 264 -7 261 -3 -3 -19 6 -35 19 l-30 25 -780 0 -780 0
-34 -34z m1594 -38 c17 -17 17 -479 0 -496 -9 -9 -194 -12 -772 -12 -693 0
-761 1 -778 17 -16 15 -18 36 -18 248 0 166 3 234 12 243 17 17 1539 17 1556
0z"/>
<path d="M7184 2506 l-34 -34 0 -251 0 -251 29 -32 29 -33 260 -5 c143 -3 258
-2 256 2 -3 4 4 12 14 17 39 21 43 56 40 320 l-3 253 -30 24 c-30 24 -31 24
-278 24 l-249 0 -34 -34z m530 -48 c13 -19 16 -59 16 -238 0 -179 -3 -219 -16
-238 -15 -22 -19 -22 -248 -22 -205 0 -235 2 -247 17 -11 12 -14 65 -14 243 0
178 3 231 14 243 12 15 42 17 247 17 229 0 233 0 248 -22z"/>
<path d="M379 1781 l-29 -29 0 -257 0 -257 29 -29 29 -29 1877 0 1877 0 34 34
34 34 0 247 0 247 -34 34 -34 34 -1877 0 -1877 0 -29 -29z m3779 -43 c9 -9 12
-77 12 -244 0 -229 0 -233 -22 -248 -20 -14 -214 -16 -1865 -16 -1830 0 -1843
0 -1863 20 -19 19 -20 33 -20 235 0 141 4 223 12 240 l11 25 1862 0 c1434 0
1864 -3 1873 -12z"/>
<path d="M4368 1793 c-14 -9 -31 -27 -37 -40 -7 -15 -11 -116 -11 -270 l0
-246 33 -31 33 -31 468 5 468 5 24 28 c24 28 24 29 24 272 0 134 -4 255 -10
269 -21 55 -29 56 -517 56 -400 -1 -451 -2 -475 -17z m933 -60 c11 -12 14 -66
14 -245 0 -217 -1 -230 -20 -244 -27 -20 -887 -16 -907 4 -19 19 -19 462 1
485 12 15 57 17 456 17 399 0 444 -2 456 -17z"/>
<path d="M5464 1776 l-34 -34 0 -248 c0 -137 4 -254 8 -259 4 -6 20 -21 36
-33 l29 -22 784 0 785 0 29 29 29 29 0 252 0 252 -34 34 -34 34 -782 0 -782 0
-34 -34z m1594 -38 c9 -9 12 -77 12 -244 0 -229 0 -233 -22 -248 -20 -14 -109
-16 -768 -16 -659 0 -748 2 -768 16 -22 15 -22 19 -22 248 0 167 3 235 12 244
17 17 1539 17 1556 0z"/>
<path d="M7197 1794 c-15 -8 -32 -26 -37 -40 -6 -14 -10 -136 -10 -270 l0
-246 29 -29 29 -29 260 0 260 0 26 31 26 31 0 255 0 255 -29 29 -29 29 -249 0
c-202 -1 -253 -4 -276 -16z m523 -70 c6 -14 10 -122 10 -240 0 -201 -1 -215
-20 -234 -19 -19 -33 -20 -243 -20 -177 0 -227 3 -243 14 -18 13 -19 30 -22
236 -3 189 -1 225 13 246 l15 24 240 0 240 0 10 -26z"/>
<path d="M379 1051 l-29 -29 0 -257 0 -257 29 -29 29 -29 1877 0 1877 0 34 34
34 34 0 247 0 247 -34 34 -34 34 -1877 0 -1877 0 -29 -29z m3761 -34 l25 -13
3 -236 2 -237 -23 -16 c-21 -14 -220 -15 -1870 -13 -1497 3 -1848 5 -1859 16
-10 10 -14 67 -16 220 -4 237 0 269 31 282 12 5 817 9 1852 9 1456 1 1835 -2
1855 -12z"/>
<path d="M4368 1064 c-15 -8 -32 -23 -38 -34 -6 -11 -10 -118 -10 -271 l0
-252 33 -31 33 -31 468 5 468 5 24 28 c24 28 24 28 24 278 0 153 -4 258 -10
270 -26 48 -39 49 -517 49 -376 -1 -452 -3 -475 -16z m928 -59 l25 -25 -3
-225 c-2 -167 -6 -227 -16 -237 -10 -10 -108 -14 -448 -16 l-434 -3 -25 25
-25 25 3 221 c2 220 2 222 26 241 22 18 45 19 448 19 l424 0 25 -25z"/>
<path d="M5464 1046 l-34 -34 0 -247 0 -247 34 -34 34 -34 791 2 791 3 25 30
24 30 1 248 0 249 -34 34 -34 34 -782 0 -782 0 -34 -34z m1584 -32 c22 -15 22
-19 22 -249 0 -230 0 -234 -22 -249 -20 -14 -110 -16 -769 -16 -696 0 -748 1
-768 18 -21 17 -21 22 -19 252 l3 234 25 13 c19 10 189 13 765 13 654 0 743
-2 763 -16z"/>
<path d="M7198 1064 c-15 -8 -32 -23 -38 -34 -6 -11 -10 -118 -10 -270 l0
-252 29 -29 29 -29 257 0 257 0 29 29 29 29 0 257 0 257 -29 29 -29 29 -249 0
c-199 -1 -253 -4 -275 -16z m514 -52 c20 -20 24 -460 4 -487 -13 -19 -28 -20
-223 -23 -114 -2 -222 -1 -239 3 -49 9 -54 32 -54 266 l0 210 25 25 25 25 225
-3 c167 -2 227 -6 237 -16z"/>
</g>
<g transform="translate(0.000000,525.000000) scale(0.100000,-0.100000)"
fill="#e5e5e5" stroke="none">
<path d="M346 5147 c-3 -18 -19 -47 -36 -65 -28 -31 -120 -82 -147 -82 -10 0
-13 -383 -13 -1880 0 -1301 -3 -1894 -11 -1929 -12 -58 -42 -101 -70 -101 -45
0 -12 -287 51 -446 28 -69 30 -84 30 -198 l0 -124 37 -13 c91 -29 163 -92 163
-141 0 -17 183 -18 3709 -18 l3709 0 6 35 c9 44 61 88 139 117 l57 21 0 125
c0 111 3 133 26 189 42 106 65 212 71 329 l6 112 -29 13 c-16 8 -38 32 -49 54
-20 40 -20 63 -23 1948 -2 1619 -4 1907 -16 1907 -20 0 -127 57 -154 83 -12
11 -25 38 -28 59 l-7 38 -3707 0 -3708 0 -6 -33z m108 -59 c-59 -44 -118 -105
-175 -181 l-59 -79 0 59 0 60 50 23 c52 24 125 90 135 121 5 14 16 19 42 19
l36 0 -29 -22z m7089 2 c29 -11 72 -36 94 -55 34 -29 49 -35 85 -35 l43 1 -35
32 c-19 18 -48 42 -65 54 l-30 22 37 1 c28 0 38 -5 43 -19 10 -33 84 -99 136
-122 l49 -23 0 -60 0 -61 -52 74 -53 74 -3 -46 c-2 -36 2 -53 20 -78 l23 -31
6 -1901 c6 -2016 3 -1889 50 -2249 l13 -97 -48 -70 c-59 -87 -172 -195 -256
-244 l-65 -37 -3473 0 -3473 0 -42 21 c-100 51 -220 163 -292 272 l-39 58 22
182 c13 100 27 247 32 327 6 84 10 903 10 1940 l1 1795 58 75 c69 89 167 172
236 199 49 20 100 20 3482 20 3413 1 3433 1 3486 -19z m-7312 -4025 c-5 -78
-9 620 -10 1752 0 1035 2 1890 7 1900 10 25 14 -3493 3 -3652z m7667 1755 c-1
-1037 -5 -1842 -8 -1790 -12 149 -11 3708 0 3690 6 -10 9 -697 8 -1900z
m-7749 -1912 c-1 -159 -2 -162 -15 -108 -8 30 -17 94 -22 142 -7 81 -6 89 12
108 11 11 22 20 23 20 2 0 3 -73 2 -162z m7859 35 c-5 -49 -14 -113 -22 -143
-13 -54 -14 -51 -15 107 l-1 163 23 -20 c22 -19 22 -24 15 -107z m-7718 -575
c0 -8 123 -115 160 -139 l25 -17 -30 6 c-18 3 -47 24 -76 56 -27 29 -69 62
-98 76 -49 22 -51 25 -51 63 l0 40 35 -39 c19 -21 34 -42 35 -46z m7610 44 c0
-36 -3 -40 -48 -61 -51 -24 -102 -66 -128 -106 -9 -13 -28 -25 -47 -28 l-32
-4 25 16 c52 34 157 131 189 175 19 25 36 46 38 46 2 0 3 -17 3 -38z"/>
<path d="M379 4691 l-29 -29 0 -257 0 -257 29 -29 29 -29 1878 0 1877 0 33 36
34 35 0 244 0 244 -34 35 -33 36 -1877 0 -1878 0 -29 -29z m3769 -37 c22 -15
22 -19 22 -249 0 -230 0 -234 -22 -249 -20 -14 -214 -16 -1865 -16 -1830 0
-1843 0 -1863 20 -19 19 -20 33 -20 245 0 212 1 226 20 245 20 20 33 20 1863
20 1651 0 1845 -2 1865 -16z"/>
<path d="M4354 4686 l-34 -34 0 -248 c0 -269 2 -275 57 -303 15 -8 159 -11
468 -11 476 0 489 1 515 49 6 12 10 116 10 268 0 268 -2 274 -57 302 -15 8
-160 11 -473 11 l-452 0 -34 -34z m948 -34 c10 -10 13 -69 13 -248 0 -223 -1
-236 -20 -250 -27 -20 -887 -16 -907 4 -10 10 -14 70 -16 237 l-3 225 25 25
26 26 434 -3 c341 -2 438 -6 448 -16z"/>
<path d="M5464 4684 l-34 -35 0 -244 0 -244 34 -35 33 -36 783 0 782 0 34 34
34 34 0 247 0 247 -34 34 -34 34 -782 0 -783 0 -33 -36z m1587 -33 c24 -19 24
-22 27 -240 l3 -221 -25 -25 -25 -25 -748 0 c-661 0 -751 2 -771 16 -22 15
-22 19 -22 249 0 230 0 234 22 249 20 14 110 16 769 16 720 0 748 -1 770 -19z"/>
<path d="M7201 4706 c-47 -26 -50 -45 -51 -304 0 -149 4 -251 10 -263 24 -44
54 -49 315 -49 l247 0 29 29 29 29 0 257 0 257 -29 29 -29 29 -249 0 c-187 -1
-254 -4 -272 -14z m509 -56 c19 -19 20 -33 20 -245 0 -212 -1 -226 -20 -245
-19 -19 -33 -20 -243 -20 -177 0 -227 3 -243 14 -18 13 -19 30 -22 223 -4 238
0 270 31 283 12 5 120 9 240 9 204 1 218 0 237 -19z"/>
<path d="M379 3961 l-29 -29 0 -257 0 -257 31 -29 31 -29 1875 0 1876 0 33 36
34 35 0 244 0 244 -34 35 -33 36 -1877 0 -1878 0 -29 -29z m3769 -37 c22 -15
22 -19 22 -249 l0 -235 -23 -15 c-21 -13 -226 -15 -1871 -13 -1816 3 -1848 3
-1862 22 -11 16 -14 66 -14 243 0 210 1 224 20 243 20 20 33 20 1863 20 1651
0 1845 -2 1865 -16z"/>
<path d="M4351 3961 l-31 -29 0 -252 0 -252 34 -34 34 -34 451 0 c328 0 457 3
476 12 51 23 55 46 55 313 l0 247 -29 29 -29 29 -465 0 -465 0 -31 -29z m945
-35 c18 -14 19 -28 19 -250 0 -179 -3 -238 -13 -248 -10 -10 -107 -14 -448
-16 l-434 -3 -26 26 -25 25 3 226 c3 210 4 227 22 240 29 21 873 21 902 0z"/>
<path d="M5464 3956 l-34 -34 0 -245 0 -246 34 -35 33 -36 783 0 782 0 34 34
34 34 0 242 c0 262 -4 285 -57 309 -17 8 -263 11 -799 11 l-776 0 -34 -34z
m1592 -30 c18 -14 19 -28 19 -246 0 -232 0 -232 -24 -251 -22 -18 -50 -19
-770 -19 -659 0 -749 2 -769 16 -22 15 -22 19 -22 249 0 230 0 234 22 249 20
14 110 16 773 16 633 0 754 -2 771 -14z"/>
<path d="M7179 3961 l-29 -29 0 -247 c0 -268 4 -290 57 -314 15 -7 114 -11
269 -11 l246 0 29 29 29 29 0 257 0 257 -29 29 -29 29 -257 0 -257 0 -29 -29z
m531 -41 c19 -19 20 -33 20 -243 0 -177 -3 -227 -14 -243 -13 -18 -30 -19
-223 -22 -114 -2 -222 -1 -239 3 -49 9 -54 32 -54 270 0 202 1 216 20 235 19
19 33 20 245 20 212 0 226 -1 245 -20z"/>
<path d="M379 3231 l-29 -29 0 -247 c0 -267 4 -290 55 -313 20 -9 466 -12
1888 -12 1672 0 1865 2 1885 16 48 33 52 57 52 308 l0 235 -34 35 -33 36
-1877 0 -1878 0 -29 -29z m3775 -39 c14 -17 16 -46 14 -253 l-3 -233 -25 -13
c-20 -10 -399 -13 -1850 -13 -1004 0 -1835 3 -1846 6 -38 10 -44 44 -44 267 0
176 3 216 16 235 l15 22 1853 0 c1790 0 1853 -1 1870 -18z"/>
<path d="M4349 3231 l-29 -29 0 -252 0 -252 34 -34 34 -34 457 0 457 0 34 34
34 34 0 252 0 252 -29 29 -29 29 -467 0 -467 0 -29 -29z m955 -43 c13 -19 16
-59 16 -241 l0 -218 -25 -25 -25 -25 -431 3 -431 3 -19 24 c-19 23 -20 38 -17
246 2 170 6 226 17 238 12 15 57 17 457 17 l443 0 15 -22z"/>
<path d="M5464 3226 l-34 -34 0 -245 0 -246 34 -35 33 -36 783 0 782 0 34 34
34 34 0 250 0 250 -31 31 -31 31 -785 0 -785 0 -34 -34z m1592 -30 c18 -14 19
-28 19 -245 0 -208 -2 -232 -18 -248 -17 -17 -63 -18 -765 -20 -589 -2 -752 0
-772 10 l-25 13 -3 233 c-2 207 0 236 14 253 16 17 50 18 774 18 637 0 759 -2
776 -14z"/>
<path d="M7179 3231 l-29 -29 0 -252 0 -252 34 -34 34 -34 241 0 c263 0 286 4
309 55 8 18 12 102 12 271 l0 246 -29 29 -29 29 -257 0 -257 0 -29 -29z m535
-43 c22 -32 24 -454 2 -484 -13 -18 -30 -19 -240 -22 l-226 -3 -25 25 -25 25
0 218 c0 182 3 222 16 241 15 22 19 22 249 22 230 0 234 0 249 -22z"/>
<path d="M384 2506 l-34 -34 0 -252 0 -252 34 -34 34 -34 1867 0 1867 0 39 38
38 38 1 247 1 246 -36 35 -36 36 -1870 0 -1871 0 -34 -34z m3774 -38 c16 -16
17 -460 2 -489 -11 -19 -42 -19 -1870 -19 l-1859 0 -15 22 c-23 33 -23 443 0
476 l15 22 1858 0 c1431 0 1860 -3 1869 -12z"/>
<path d="M4354 2506 l-34 -34 0 -252 0 -253 36 -33 35 -34 456 0 455 0 34 34
34 34 0 252 0 252 -34 34 -34 34 -457 0 -457 0 -34 -34z m950 -48 c13 -19 16
-59 16 -238 0 -179 -3 -219 -16 -238 l-15 -22 -443 0 c-400 0 -445 2 -457 17
-11 12 -15 68 -17 235 -3 187 -1 223 13 244 l15 24 445 0 444 0 15 -22z"/>
<path d="M5465 2505 l-35 -36 0 -240 c0 -264 3 -279 60 -313 25 -14 103 -16
798 -16 l771 0 35 34 36 33 0 253 0 252 -34 34 -34 34 -781 0 -780 0 -36 -35z
m1596 -42 c20 -24 20 -462 0 -486 -12 -16 -79 -17 -780 -17 -583 0 -770 3
-779 12 -9 9 -12 78 -12 248 0 170 3 239 12 248 9 9 196 12 779 12 701 0 768
-1 780 -17z"/>
<path d="M7184 2506 l-34 -34 0 -252 0 -253 36 -33 35 -34 246 0 245 0 34 34
34 34 0 252 0 252 -34 34 -34 34 -247 0 -247 0 -34 -34z m530 -42 c14 -13 16
-49 16 -241 0 -197 -2 -229 -17 -245 -15 -16 -36 -18 -249 -18 -229 0 -233 0
-248 22 -13 19 -16 59 -16 238 0 179 3 219 16 238 15 22 19 22 249 22 199 0
236 -2 249 -16z"/>
<path d="M397 1794 c-15 -8 -32 -26 -37 -40 -6 -14 -10 -136 -10 -270 l0 -246
29 -29 29 -29 1878 0 1877 0 33 36 34 35 0 244 0 244 -34 35 -33 36 -1869 0
c-1651 -1 -1872 -3 -1897 -16z m3743 -47 l25 -13 3 -233 c2 -207 0 -236 -14
-253 -17 -17 -80 -18 -1866 -18 -1835 0 -1848 0 -1868 20 -19 19 -20 33 -20
243 0 228 3 247 40 260 8 3 838 6 1845 6 1456 1 1835 -2 1855 -12z"/>
<path d="M4354 1776 l-34 -34 0 -252 0 -252 29 -29 29 -29 467 0 467 0 29 29
29 29 0 252 0 252 -34 34 -34 34 -457 0 -457 0 -34 -34z m941 -41 l25 -24 0
-221 c0 -207 -1 -221 -20 -240 -19 -19 -33 -20 -453 -20 -358 0 -437 2 -453
14 -18 13 -19 30 -22 240 l-3 226 25 25 25 25 426 0 426 0 24 -25z"/>
<path d="M5464 1774 l-34 -35 0 -244 0 -244 34 -35 33 -36 777 0 c553 0 784 3
799 11 55 28 57 34 57 302 l0 249 -34 34 -34 34 -782 0 -783 0 -33 -36z m1587
-33 c24 -19 24 -20 24 -251 0 -218 -1 -232 -19 -246 -17 -12 -139 -14 -776
-14 -724 0 -758 1 -774 18 -14 17 -16 46 -14 253 l3 233 25 13 c19 10 189 13
766 13 716 0 743 -1 765 -19z"/>
<path d="M7184 1776 l-34 -34 0 -252 0 -252 29 -29 29 -29 257 0 257 0 29 29
29 29 0 252 c0 153 -4 259 -10 271 -24 44 -55 49 -311 49 l-241 0 -34 -34z
m532 -40 c11 -16 14 -66 14 -243 0 -210 -1 -224 -20 -243 -19 -19 -33 -20
-245 -20 -212 0 -226 1 -245 20 -19 19 -20 33 -20 240 l0 221 25 25 25 25 226
-3 c210 -3 227 -4 240 -22z"/>
<path d="M381 1051 l-31 -29 0 -257 0 -257 29 -29 29 -29 1878 0 1877 0 33 36
34 35 0 244 0 244 -34 35 -33 36 -1876 0 -1875 0 -31 -29z m3767 -37 c22 -15
22 -19 22 -249 0 -230 0 -234 -22 -249 -20 -14 -214 -16 -1865 -16 -1830 0
-1843 0 -1863 20 -19 19 -20 33 -20 245 0 212 1 226 20 245 20 20 33 20 1863
20 1651 0 1845 -2 1865 -16z"/>
<path d="M4354 1046 l-34 -34 0 -247 c0 -150 4 -254 10 -266 26 -48 39 -49
515 -49 309 0 453 3 468 11 55 28 57 35 57 297 0 264 -4 287 -55 310 -19 9
-148 12 -476 12 l-451 0 -34 -34z m948 -34 c10 -10 13 -69 13 -248 0 -222 -1
-236 -19 -250 -29 -21 -873 -21 -902 0 -18 13 -19 30 -22 240 l-3 226 25 25
26 26 434 -3 c341 -2 438 -6 448 -16z"/>
<path d="M5464 1044 l-34 -35 0 -244 0 -244 34 -35 33 -36 783 0 782 0 34 34
34 34 0 247 0 247 -34 34 -34 34 -782 0 -783 0 -33 -36z m1587 -33 c24 -19 24
-22 27 -240 l3 -220 -25 -26 -25 -25 -748 0 c-661 0 -751 2 -771 16 -22 15
-22 19 -22 249 0 230 0 234 22 249 20 14 110 16 769 16 720 0 748 -1 770 -19z"/>
<path d="M7201 1066 c-47 -26 -50 -44 -51 -307 l0 -247 29 -31 29 -31 257 0
257 0 29 29 29 29 0 257 0 257 -29 29 -29 29 -249 0 c-187 -1 -254 -4 -272
-14z m509 -56 c19 -19 20 -33 20 -245 0 -212 -1 -226 -20 -245 -19 -19 -33
-20 -243 -20 -177 0 -227 3 -243 14 -18 13 -19 30 -22 223 -4 238 0 270 31
283 12 5 120 9 240 9 204 1 218 0 237 -19z"/>
</g>
<g transform="translate(0.000000,525.000000) scale(0.100000,-0.100000)"
fill="#dcdcdc" stroke="none">
<path d="M350 5160 c0 -56 -74 -125 -162 -152 l-38 -11 0 -1887 c0 -1608 -2
-1894 -14 -1934 -17 -55 -41 -86 -68 -86 -44 0 -9 -298 53 -445 27 -64 29 -79
29 -191 0 -134 -2 -131 70 -157 66 -25 118 -71 126 -112 l6 -35 3708 0 3708 0
6 34 c8 43 50 79 134 117 l62 28 0 122 c0 108 3 130 26 186 42 107 65 212 70
328 l5 110 -33 20 c-24 15 -38 34 -50 70 -16 46 -17 185 -18 1940 l0 1890 -50
18 c-79 28 -133 75 -144 125 l-10 42 -3708 0 -3708 0 0 -20z m105 -73 c-80
-58 -206 -201 -228 -257 -3 -8 -6 14 -6 51 l-1 65 45 22 c52 25 131 95 140
123 5 14 16 19 43 19 l37 -1 -30 -22z m7085 4 c27 -10 72 -35 99 -55 36 -27
58 -36 87 -36 l39 1 -35 32 c-19 18 -48 42 -65 54 l-30 22 37 1 c27 0 38 -5
43 -19 9 -30 73 -88 131 -118 l54 -28 0 -64 0 -65 -31 50 c-18 27 -42 62 -55
77 l-24 29 0 -44 c0 -30 8 -55 25 -80 l25 -37 0 -1808 c0 -994 5 -1866 10
-1938 5 -71 19 -212 31 -311 l23 -182 -43 -66 c-55 -85 -190 -212 -268 -254
l-61 -32 -3479 0 -3479 0 -76 50 c-85 56 -221 194 -258 263 -24 46 -24 48 -11
144 47 362 44 231 48 2241 l4 1894 41 56 c80 110 171 189 257 223 44 17 206
18 3478 19 3344 0 3434 0 3483 -19z m-7300 -2263 c-3 -1054 -8 -1920 -13
-1924 -4 -4 -7 848 -7 1894 0 1423 3 1907 12 1927 6 14 12 24 12 23 1 -2 -1
-866 -4 -1920z m7660 -17 c0 -1042 -3 -1891 -7 -1887 -5 4 -10 865 -13 1912
-4 1525 -3 1901 8 1887 9 -13 12 -412 12 -1912z m-7751 -1903 c-1 -157 -1
-161 -15 -113 -7 28 -18 92 -24 143 -10 91 -10 94 12 112 13 11 24 19 26 20 1
0 2 -73 1 -162z m7864 69 c-4 -57 -33 -227 -39 -227 -2 0 -4 73 -4 162 l0 161
23 -21 c20 -19 23 -30 20 -75z m-7725 -602 c35 -40 104 -102 158 -143 l29 -22
-28 4 c-17 3 -45 24 -72 54 -24 27 -69 62 -100 78 -54 29 -55 30 -55 74 l0 44
17 -24 c9 -14 32 -43 51 -65z m7612 43 c0 -42 -1 -44 -55 -72 -31 -16 -76 -51
-101 -79 -28 -31 -55 -51 -71 -53 -14 -2 -24 -1 -22 0 2 2 31 25 64 51 65 51
122 111 158 162 12 18 23 33 25 33 1 0 2 -19 2 -42z"/>
<path d="M401 4706 c-47 -26 -50 -44 -51 -309 l0 -249 31 -29 31 -29 1875 0
1875 0 29 29 29 29 0 257 0 257 -29 29 -29 29 -1869 0 c-1531 -1 -1872 -3
-1892 -14z m3747 -52 c22 -15 22 -19 22 -246 0 -201 -2 -234 -17 -250 -15 -17
-87 -18 -1865 -18 -1835 0 -1848 0 -1868 20 -19 19 -20 33 -20 245 0 212 1
226 20 245 20 20 33 20 1863 20 1651 0 1845 -2 1865 -16z"/>
<path d="M4354 4686 l-34 -34 0 -247 0 -247 34 -34 34 -34 451 0 c328 0 457 3
476 12 51 23 55 46 55 309 l0 241 -34 34 -34 34 -457 0 -457 0 -34 -34z m946
-36 c19 -19 20 -33 20 -245 0 -212 -1 -226 -20 -245 -19 -19 -33 -20 -455 -20
-425 0 -435 0 -456 21 -19 19 -20 29 -17 250 3 215 4 232 22 245 16 12 95 14
453 14 420 0 434 -1 453 -20z"/>
<path d="M5482 4704 c-45 -31 -50 -56 -51 -291 -2 -173 1 -229 12 -256 30 -71
-25 -67 840 -67 l779 0 34 34 34 34 0 247 0 247 -34 34 -34 34 -779 0 c-689 0
-781 -2 -801 -16z m1580 -52 c10 -10 13 -69 13 -248 0 -222 -1 -236 -19 -250
-17 -12 -139 -14 -775 -14 -688 0 -756 1 -773 17 -16 15 -18 36 -18 249 0 230
0 233 22 249 21 14 104 15 780 13 605 -2 760 -6 770 -16z"/>
<path d="M7201 4706 c-47 -26 -50 -45 -51 -299 0 -259 4 -282 55 -305 18 -8
102 -12 271 -12 l246 0 29 29 29 29 0 252 c0 153 -4 259 -10 271 -24 44 -55
49 -307 49 -178 -1 -244 -4 -262 -14z m509 -56 c19 -19 20 -33 20 -249 0 -226
0 -230 -22 -245 -19 -13 -60 -16 -245 -16 -210 0 -224 1 -243 20 -19 19 -20
33 -20 245 0 212 1 226 20 245 19 19 33 20 245 20 212 0 226 -1 245 -20z"/>
<path d="M379 3961 l-29 -29 0 -247 c0 -267 4 -290 55 -313 20 -9 466 -12
1891 -12 l1866 0 29 29 29 29 0 257 0 257 -29 29 -29 29 -1877 0 -1877 0 -29
-29z m3773 -38 c16 -15 18 -36 18 -249 0 -229 0 -233 -22 -248 -20 -14 -214
-16 -1865 -16 -1830 0 -1843 0 -1863 20 -19 19 -20 33 -20 245 0 212 1 226 20
245 20 20 33 20 1867 20 1704 0 1848 -1 1865 -17z"/>
<path d="M4374 3979 c-50 -25 -54 -49 -54 -309 l0 -242 34 -34 34 -34 457 0
457 0 34 34 34 34 0 248 c0 269 -2 275 -57 303 -29 15 -909 14 -939 0z m926
-59 c19 -19 20 -33 20 -245 0 -212 -1 -226 -20 -245 -19 -19 -33 -20 -442 -20
-233 0 -433 3 -444 6 -39 10 -44 44 -44 269 0 202 1 216 20 235 19 19 33 20
455 20 422 0 436 -1 455 -20z"/>
<path d="M5481 3974 c-43 -31 -49 -66 -51 -287 -1 -226 7 -275 47 -306 25 -21
34 -21 805 -21 l780 0 34 34 34 34 0 247 0 247 -34 34 -34 34 -779 0 c-704 0
-781 -2 -802 -16z m1575 -48 c18 -13 19 -30 22 -240 l3 -226 -25 -25 -25 -25
-748 0 c-661 0 -751 2 -771 16 -22 15 -22 19 -22 246 0 201 2 234 17 250 15
17 52 18 773 18 637 0 759 -2 776 -14z"/>
<path d="M7181 3959 l-31 -31 0 -250 0 -250 34 -34 34 -34 241 0 c256 0 287 5
311 49 6 12 10 118 10 271 l0 252 -29 29 -29 29 -255 0 -255 0 -31 -31z m527
-35 c22 -15 22 -19 22 -245 0 -216 -1 -230 -20 -249 -19 -19 -33 -20 -245 -20
-212 0 -226 1 -245 20 -19 19 -20 33 -20 245 0 212 1 226 20 245 19 19 33 20
243 20 185 0 226 -3 245 -16z"/>
<path d="M379 3231 l-29 -29 0 -252 0 -252 34 -34 34 -34 1861 0 c2013 0 1901
-3 1928 52 16 31 16 20 14 286 l-1 234 -29 29 -29 29 -1877 0 -1877 0 -29 -29z
m3774 -34 c16 -11 17 -35 15 -252 l-3 -239 -25 -13 c-20 -10 -395 -12 -1868
-10 -1812 2 -1844 2 -1858 21 -22 30 -20 452 2 484 l15 22 1853 0 c1466 0
1856 -3 1869 -13z"/>
<path d="M4351 3231 l-31 -29 0 -252 0 -252 34 -34 34 -34 457 0 457 0 34 34
34 34 0 252 0 252 -29 29 -29 29 -465 0 -465 0 -31 -29z m953 -43 c13 -19 16
-59 16 -241 l0 -218 -25 -24 -24 -25 -426 0 -426 0 -24 25 -25 24 0 218 c0
182 3 222 16 241 l15 22 444 0 444 0 15 -22z"/>
<path d="M5481 3244 c-46 -32 -52 -69 -51 -295 1 -115 6 -224 11 -242 5 -17
21 -42 36 -54 l28 -23 779 0 778 0 34 34 34 34 0 247 0 247 -34 34 -34 34
-779 0 c-704 0 -781 -2 -802 -16z m1580 -51 c11 -12 15 -68 17 -239 l3 -224
-25 -25 -25 -25 -743 0 c-579 0 -749 3 -768 13 l-25 13 -3 239 c-2 217 -1 241
15 252 13 10 185 13 779 13 696 0 763 -1 775 -17z"/>
<path d="M7179 3231 l-29 -29 0 -252 0 -252 34 -34 34 -34 247 0 247 0 34 34
34 34 0 252 0 252 -29 29 -29 29 -257 0 -257 0 -29 -29z m533 -38 c16 -15 18
-36 18 -243 0 -179 -3 -230 -14 -246 -13 -18 -30 -19 -223 -22 -114 -2 -222
-1 -239 3 -49 9 -54 32 -54 268 0 176 3 216 16 235 15 22 19 22 246 22 201 0
234 -2 250 -17z"/>
<path d="M386 2506 l-36 -33 0 -249 c0 -277 1 -283 66 -310 49 -20 3693 -20
3739 0 65 29 64 26 65 306 l1 255 -35 32 -36 33 -1864 0 -1865 0 -35 -34z
m3770 -37 c11 -9 14 -61 14 -249 0 -209 -2 -239 -17 -251 -13 -12 -312 -14
-1863 -14 -1803 0 -1848 0 -1869 19 -20 18 -21 28 -21 245 1 236 4 254 45 262
10 2 846 3 1858 2 1348 -2 1843 -6 1853 -14z"/>
<path d="M4373 2520 c-17 -10 -37 -28 -42 -39 -7 -12 -11 -111 -11 -267 l0
-247 35 -33 36 -33 432 0 c264 -1 447 3 469 9 20 6 46 22 58 37 19 24 20 39
20 272 0 270 -1 276 -60 306 -24 13 -98 15 -467 15 -416 0 -440 -1 -470 -20z
m929 -60 c16 -20 18 -47 18 -240 0 -200 -2 -220 -19 -241 l-19 -24 -437 0
-437 0 -19 24 c-17 21 -19 41 -19 241 0 193 2 220 18 239 17 21 23 21 432 24
228 1 426 1 440 0 14 -1 33 -12 42 -23z"/>
<path d="M5488 2523 c-50 -31 -53 -47 -53 -309 l0 -244 33 -32 32 -33 758 -2
c510 -2 769 0 795 8 26 7 44 21 57 42 18 29 20 52 20 270 0 204 -2 241 -16
263 -37 56 -9 54 -836 54 -694 -1 -765 -2 -790 -17z m1577 -67 c14 -21 16 -58
13 -245 -3 -196 -5 -222 -21 -238 -17 -17 -62 -18 -776 -18 -632 0 -761 2
-775 14 -15 12 -16 40 -14 255 3 232 4 241 24 251 13 7 273 9 777 7 l757 -2
15 -24z"/>
<path d="M7203 2520 c-17 -10 -37 -28 -42 -39 -7 -12 -11 -110 -11 -264 0
-337 -17 -321 344 -315 l228 3 29 33 29 32 0 251 0 251 -34 34 -34 34 -238 0
c-219 0 -242 -2 -271 -20z m515 -57 c19 -26 17 -462 -2 -489 -14 -18 -28 -19
-246 -19 -231 0 -232 0 -251 24 -17 21 -19 41 -19 238 0 220 4 248 40 261 10
4 119 6 242 4 193 -2 225 -5 236 -19z"/>
<path d="M398 1793 c-14 -9 -31 -27 -37 -40 -7 -15 -11 -115 -11 -269 l0 -246
29 -29 29 -29 1877 0 1877 0 29 29 29 29 0 257 0 257 -29 29 -29 29 -1869 0
c-1722 -1 -1870 -2 -1895 -17z m3750 -49 c22 -15 22 -18 22 -254 0 -226 -1
-240 -19 -250 -13 -7 -614 -10 -1870 -10 l-1850 0 -15 22 c-13 19 -16 60 -16
243 0 226 3 245 40 258 8 3 841 6 1850 6 1646 1 1838 -1 1858 -15z"/>
<path d="M4354 1776 l-34 -34 0 -250 0 -250 29 -31 29 -31 467 0 467 0 29 29
29 29 0 252 0 252 -34 34 -34 34 -457 0 -457 0 -34 -34z m948 -34 c10 -10 14
-70 16 -238 3 -192 1 -229 -13 -250 l-15 -24 -445 0 -444 0 -15 22 c-13 19
-16 59 -16 241 l0 218 25 25 25 25 434 -3 c340 -2 438 -6 448 -16z"/>
<path d="M5481 1794 c-46 -32 -52 -68 -51 -302 2 -231 7 -265 51 -296 21 -14
98 -16 802 -16 l779 0 34 34 34 34 0 245 0 246 -34 35 -33 36 -779 0 c-705 0
-782 -2 -803 -16z m1575 -59 l25 -25 -3 -226 c-3 -210 -4 -227 -22 -240 -17
-12 -139 -14 -774 -14 -500 0 -760 3 -773 10 -18 10 -19 24 -19 250 0 236 0
239 22 254 20 14 110 16 771 16 l748 0 25 -25z"/>
<path d="M7184 1776 l-34 -34 0 -252 0 -252 29 -29 29 -29 257 0 257 0 29 29
29 29 0 246 c0 169 -4 253 -12 271 -23 51 -46 55 -309 55 l-241 0 -34 -34z
m526 -36 c19 -19 20 -33 20 -247 0 -197 -2 -229 -17 -245 -15 -16 -36 -18
-249 -18 -229 0 -233 0 -248 22 -13 19 -16 59 -16 235 0 216 6 258 39 266 9 3
114 5 234 6 205 1 218 0 237 -19z"/>
<path d="M397 1064 c-15 -8 -32 -26 -37 -40 -6 -14 -10 -136 -10 -270 l0 -246
29 -29 29 -29 1877 0 1877 0 29 29 29 29 0 257 0 257 -29 29 -29 29 -1869 0
c-1650 -1 -1871 -3 -1896 -16z m3751 -50 c22 -15 22 -19 22 -246 0 -201 -2
-234 -17 -250 -15 -17 -87 -18 -1865 -18 -1835 0 -1848 0 -1868 20 -19 19 -20
33 -20 245 0 212 1 226 20 245 20 20 33 20 1863 20 1651 0 1845 -2 1865 -16z"/>
<path d="M4354 1046 l-34 -34 0 -242 c0 -262 4 -285 57 -309 35 -16 903 -15
938 1 51 23 55 46 55 309 l0 241 -34 34 -34 34 -457 0 -457 0 -34 -34z m946
-36 c19 -19 20 -33 20 -245 0 -212 -1 -226 -20 -245 -19 -19 -33 -20 -453 -20
-358 0 -437 2 -453 14 -18 13 -19 30 -22 223 -4 238 0 270 31 283 12 5 214 9
450 9 414 1 428 0 447 -19z"/>
<path d="M5481 1064 c-46 -33 -52 -69 -50 -296 1 -116 5 -225 10 -242 5 -17
20 -41 34 -53 l26 -23 781 0 780 0 34 34 34 34 0 247 0 247 -34 34 -34 34
-779 0 c-704 0 -781 -2 -802 -16z m1581 -52 c10 -10 13 -69 13 -248 0 -222 -1
-236 -19 -250 -17 -12 -139 -14 -775 -14 -688 0 -756 1 -773 17 -16 15 -18 36
-18 249 0 230 0 233 22 249 21 14 104 15 780 13 605 -2 760 -6 770 -16z"/>
<path d="M7204 1069 c-49 -25 -54 -50 -54 -304 0 -256 4 -280 55 -303 18 -8
102 -12 271 -12 l246 0 29 29 29 29 0 252 c0 153 -4 259 -10 271 -24 44 -55
49 -307 48 -138 0 -247 -5 -259 -10z m504 -55 c22 -15 22 -19 22 -249 0 -230
0 -234 -22 -249 -19 -13 -60 -16 -245 -16 -210 0 -224 1 -243 20 -19 19 -20
33 -20 245 0 212 1 226 20 245 19 19 33 20 243 20 185 0 226 -3 245 -16z"/>
</g>
<g transform="translate(0.000000,525.000000) scale(0.100000,-0.100000)"
fill="#888888" stroke="none">
<path d="M350 5143 c0 -37 -73 -105 -139 -128 l-51 -19 0 -720 c0 -397 0
-1235 0 -1863 0 -693 -4 -1163 -10 -1193 -14 -76 -39 -121 -73 -134 l-30 -11
6 -105 c7 -121 34 -241 77 -341 27 -65 30 -81 30 -184 l0 -114 60 -27 c69 -31
130 -92 130 -129 l0 -25 3710 0 3710 0 0 23 c1 49 42 90 132 132 l53 25 6 127
c4 110 9 137 33 191 41 94 66 205 73 323 l6 106 -25 6 c-33 9 -54 42 -73 114
-13 50 -15 301 -15 1928 l0 1871 -51 19 c-66 23 -139 91 -139 128 l0 27 -3710
0 -3710 0 0 -27z m82 -81 c-67 -54 -142 -137 -179 -199 -14 -24 -27 -43 -29
-43 -2 0 -4 32 -4 70 0 52 3 70 13 70 29 0 132 77 152 113 18 34 23 37 63 37
l43 0 -59 -48z m7133 20 c33 -16 74 -41 91 -55 21 -18 43 -27 65 -27 l34 1
-40 37 c-22 20 -51 45 -65 54 l-25 17 46 0 c42 1 46 -1 62 -34 17 -35 124
-115 154 -115 10 0 13 -19 13 -77 l0 -78 -29 50 c-17 28 -41 64 -55 80 l-25
30 -1 -38 c0 -25 9 -51 25 -75 l25 -37 0 -1745 c0 -974 5 -1829 10 -1935 5
-105 19 -261 30 -348 11 -87 20 -175 20 -196 0 -77 -158 -257 -301 -342 l-65
-39 -3474 0 -3473 0 -46 27 c-110 63 -209 155 -280 257 -46 66 -49 92 -30 221
38 263 39 293 39 2219 l0 1868 44 62 c65 91 165 181 238 216 l63 30 3445 0
3445 0 60 -28z m-7319 -2347 c-2 -1001 -8 -1757 -14 -1795 -6 -42 -9 610 -10
1853 -2 1519 1 1923 11 1940 18 32 18 -43 13 -1998z m7652 56 c-1 -1255 -4
-1903 -11 -1861 -5 38 -11 839 -13 1945 -3 1667 -2 1878 11 1861 13 -17 15
-254 13 -1945z m-7738 -1891 c0 -99 -4 -180 -8 -180 -13 0 -43 138 -49 228 -6
77 -5 84 18 106 13 13 27 24 32 25 4 1 7 -80 7 -179z m7836 155 c26 -24 27
-28 21 -102 -6 -90 -36 -233 -49 -233 -4 0 -8 81 -8 180 0 99 2 180 4 180 3 0
17 -11 32 -25z m-7679 -706 c24 -25 70 -66 104 -90 l60 -44 -33 -3 c-25 -3
-36 2 -48 19 -34 52 -62 77 -119 108 l-61 32 0 47 0 47 27 -35 c15 -19 47 -56
70 -81z m7583 67 c0 -45 0 -45 -61 -77 -59 -32 -119 -90 -119 -116 0 -9 -15
-13 -42 -13 -23 0 -38 4 -32 8 5 5 36 29 69 54 62 47 129 115 160 161 9 15 19
27 21 27 2 0 4 -20 4 -44z"/>
<path d="M403 4700 c-17 -10 -37 -28 -42 -39 -7 -12 -11 -110 -11 -261 l0
-242 34 -34 34 -34 1861 0 c1421 0 1866 3 1886 12 51 23 55 46 55 309 l0 241
-34 34 -34 34 -1859 0 c-1822 0 -1859 0 -1890 -20z m3761 -52 c13 -19 16 -60
16 -244 0 -203 -2 -224 -19 -245 l-19 -24 -1856 0 c-1636 0 -1857 2 -1870 15
-13 12 -15 53 -16 235 0 121 -1 228 0 237 0 9 7 24 16 32 14 14 198 16 1874
16 l1859 0 15 -22z"/>
<path d="M4378 4704 c-15 -8 -32 -23 -38 -34 -14 -25 -14 -505 0 -531 26 -48
39 -49 512 -49 486 0 471 -2 503 60 22 43 22 468 0 510 -31 60 -31 60 -512 60
-367 -1 -442 -3 -465 -16z m924 -51 c16 -15 18 -36 18 -249 0 -256 0 -258 -63
-269 -18 -3 -215 -5 -438 -3 -384 3 -408 4 -428 22 -20 18 -21 28 -21 249 0
200 2 233 17 249 15 17 43 18 456 18 396 0 442 -2 459 -17z"/>
<path d="M5474 4686 l-34 -34 0 -241 c0 -263 4 -286 55 -309 36 -17 1536 -17
1568 -1 56 28 57 34 57 304 0 270 -1 276 -57 304 -15 8 -243 11 -788 11 l-767
0 -34 -34z m1590 -38 c13 -19 16 -60 16 -249 0 -217 -1 -227 -21 -245 -20 -18
-48 -19 -781 -19 l-760 0 -19 24 c-17 21 -19 42 -19 245 0 184 3 225 16 244
l15 22 769 0 769 0 15 -22z"/>
<path d="M7208 4705 c-54 -30 -58 -53 -58 -300 0 -333 -18 -315 318 -315 l244
0 34 34 34 34 0 246 0 246 -29 32 -29 33 -244 2 c-201 2 -248 0 -270 -12z
m508 -49 c18 -14 19 -28 19 -250 0 -212 -2 -237 -18 -253 -16 -16 -42 -18
-219 -21 -111 -2 -216 -1 -234 3 -64 11 -64 12 -64 267 0 201 2 234 17 250 15
16 36 18 248 18 184 0 235 -3 251 -14z"/>
<path d="M384 3956 l-34 -34 0 -244 c0 -266 1 -273 60 -303 25 -13 257 -15
1875 -15 1618 0 1850 2 1875 15 59 30 60 37 60 298 0 259 -4 282 -55 305 -20
9 -465 12 -1886 12 l-1861 0 -34 -34z m3771 -31 l25 -24 0 -226 c0 -212 -1
-226 -20 -245 -20 -20 -33 -20 -1872 -20 -1148 0 -1859 4 -1868 10 -12 8 -16
50 -20 240 -3 127 -2 240 2 251 4 11 18 24 30 29 14 5 777 9 1861 9 l1838 1
24 -25z"/>
<path d="M4384 3980 c-51 -20 -54 -36 -54 -305 0 -270 1 -276 57 -304 15 -8
156 -11 458 -11 478 0 479 0 510 60 22 42 22 467 0 510 -32 62 -16 60 -505 59
-245 0 -455 -4 -466 -9z m922 -54 c11 -16 14 -67 14 -250 0 -199 -2 -232 -17
-248 -15 -17 -43 -18 -456 -18 -396 0 -442 2 -459 17 -16 15 -18 36 -18 247 0
127 4 236 8 242 21 32 48 34 480 31 416 -2 434 -3 448 -21z"/>
<path d="M5491 3976 c-47 -26 -50 -45 -51 -303 l0 -243 29 -32 29 -33 767 -3
c837 -3 817 -4 844 54 14 32 15 497 1 525 -27 50 -13 49 -832 49 -614 -1 -768
-3 -787 -14z m1563 -47 l26 -20 0 -228 c0 -189 -3 -230 -16 -249 l-15 -22
-765 0 c-751 0 -764 0 -784 20 -19 19 -20 33 -20 245 l0 226 25 24 24 25 749
0 c743 0 750 0 776 -21z"/>
<path d="M7202 3974 c-48 -33 -52 -57 -52 -299 0 -330 -15 -315 315 -315 333
0 315 -18 315 318 l0 244 -34 34 -34 34 -244 0 c-204 0 -247 -3 -266 -16z
m515 -47 c16 -16 18 -42 21 -229 2 -117 1 -222 -2 -234 -14 -53 -20 -54 -268
-54 -201 0 -234 2 -250 17 -16 15 -18 36 -18 248 0 236 3 254 40 268 8 3 115
5 237 4 198 -2 224 -4 240 -20z"/>
<path d="M384 3226 l-34 -34 0 -237 c0 -245 3 -264 44 -297 20 -17 134 -18
1894 -18 l1874 0 29 29 29 29 0 251 c0 250 0 250 -24 278 l-24 28 -1877 3
-1877 2 -34 -34z m3770 -27 l26 -20 0 -230 c0 -216 -1 -230 -20 -249 -20 -20
-33 -20 -1873 -20 -1771 0 -1855 1 -1870 18 -14 15 -17 51 -17 252 -1 230 -1
235 20 252 21 17 119 18 1865 18 l1842 0 27 -21z"/>
<path d="M4359 3231 l-29 -29 0 -252 0 -252 29 -29 29 -29 451 0 c315 0 458 3
475 11 50 23 56 57 56 299 0 176 -3 227 -15 250 -32 62 -16 60 -513 60 l-454
0 -29 -29z m941 -31 c19 -19 20 -33 20 -254 0 -231 0 -235 -22 -250 -20 -14
-80 -16 -455 -16 -420 0 -434 1 -453 20 -19 19 -20 33 -20 250 0 217 1 231 20
250 19 19 33 20 455 20 422 0 436 -1 455 -20z"/>
<path d="M5469 3231 l-29 -29 0 -252 0 -252 29 -29 29 -29 782 0 782 0 29 29
29 29 0 252 0 252 -29 29 -29 29 -782 0 -782 0 -29 -29z m1591 -31 c19 -19 20
-33 20 -250 0 -217 -1 -231 -20 -250 -20 -20 -33 -20 -780 -20 -747 0 -760 0
-780 20 -19 19 -20 33 -20 249 l0 230 26 20 c26 21 33 21 780 21 741 0 754 0
774 -20z"/>
<path d="M7202 3244 c-48 -33 -52 -58 -52 -294 0 -242 6 -276 56 -299 16 -7
108 -11 269 -11 243 0 244 0 272 24 l28 24 3 243 c3 264 -1 289 -49 314 -43
23 -495 22 -527 -1z m509 -43 c24 -19 24 -22 27 -243 3 -216 2 -225 -18 -251
l-21 -27 -228 0 c-189 0 -230 3 -249 16 -22 15 -22 19 -22 250 0 221 1 235 20
254 19 19 33 20 244 20 205 0 226 -2 247 -19z"/>
<path d="M401 2516 c-47 -26 -50 -45 -51 -294 0 -253 4 -277 55 -300 20 -9
466 -12 1891 -12 l1866 0 29 29 29 29 0 252 0 252 -29 29 -29 29 -1869 0
c-1531 -1 -1872 -3 -1892 -14z m3759 -46 c19 -19 20 -33 20 -250 0 -217 -1
-231 -20 -250 -20 -20 -33 -20 -1869 -20 -1751 0 -1850 1 -1871 18 -21 17 -21
22 -21 252 1 226 2 236 22 253 20 16 124 17 1870 17 1836 0 1849 0 1869 -20z"/>
<path d="M4359 2501 l-29 -29 0 -252 0 -252 29 -29 29 -29 456 0 456 0 32 29
33 29 0 252 0 252 -33 29 -32 29 -456 0 -456 0 -29 -29z m939 -27 c22 -15 22
-19 22 -250 0 -221 -1 -235 -20 -254 -19 -19 -33 -20 -455 -20 -422 0 -436 1
-455 20 -19 19 -20 33 -20 250 0 217 1 231 20 250 19 19 33 20 453 20 375 0
435 -2 455 -16z"/>
<path d="M5469 2501 l-29 -29 0 -252 0 -252 29 -29 29 -29 782 0 782 0 29 29
29 29 0 252 0 252 -29 29 -29 29 -782 0 -782 0 -29 -29z m1591 -31 c19 -19 20
-33 20 -250 0 -217 -1 -231 -20 -250 -20 -20 -33 -20 -780 -20 -747 0 -760 0
-780 20 -19 19 -20 33 -20 250 0 217 1 231 20 250 20 20 33 20 780 20 747 0
760 0 780 -20z"/>
<path d="M7188 2501 l-33 -29 0 -252 0 -252 33 -29 32 -29 241 0 c261 0 284 4
307 55 8 18 12 99 12 255 0 156 -4 237 -12 255 -23 51 -46 55 -307 55 l-241 0
-32 -29z m527 -36 l25 -24 0 -221 0 -221 -25 -24 -24 -25 -226 0 c-212 0 -226
1 -245 20 -19 19 -20 33 -20 254 0 231 0 235 22 250 19 13 60 16 246 16 l223
0 24 -25z"/>
<path d="M397 1789 c-42 -25 -47 -56 -47 -305 l0 -236 34 -34 34 -34 1861 0
c1421 0 1866 3 1886 12 51 23 55 46 55 308 l0 242 -29 29 -29 29 -1874 0
c-1254 -1 -1879 -4 -1891 -11z m3763 -49 c19 -19 20 -33 20 -245 l0 -226 -25
-24 -24 -25 -1843 0 c-1652 0 -1846 2 -1866 16 -22 15 -22 19 -22 251 0 206 2
239 17 255 15 17 87 18 1870 18 1840 0 1853 0 1873 -20z"/>
<path d="M4361 1774 l-31 -26 0 -255 0 -255 29 -29 29 -29 454 0 c497 0 481
-2 513 60 12 23 15 73 15 249 0 121 -4 231 -9 244 -6 14 -20 35 -32 46 -22 21
-30 21 -480 21 l-457 0 -31 -26z m941 -31 c16 -15 18 -36 18 -250 0 -221 -1
-234 -20 -253 -20 -20 -30 -21 -461 -18 -423 3 -441 4 -455 22 -11 16 -14 67
-14 252 0 229 0 233 22 248 20 14 80 16 457 16 390 0 436 -2 453 -17z"/>
<path d="M5469 1771 l-29 -29 0 -249 c0 -268 2 -274 57 -302 15 -8 245 -11
793 -11 l772 0 29 29 29 29 0 252 0 252 -29 29 -29 29 -782 0 -782 0 -29 -29z
m1591 -31 c19 -19 20 -33 20 -248 0 -181 -3 -232 -14 -248 -14 -18 -35 -19
-775 -22 l-762 -2 -24 24 -25 25 0 226 c0 212 1 226 20 245 20 20 33 20 780
20 747 0 760 0 780 -20z"/>
<path d="M7193 1782 c-38 -30 -43 -64 -43 -293 0 -326 -17 -309 318 -309 l244
0 34 34 34 34 0 247 0 247 -29 29 -29 29 -254 0 c-224 0 -255 -2 -275 -18z
m527 -49 c20 -26 21 -35 18 -251 -3 -221 -3 -224 -27 -243 -21 -17 -42 -19
-247 -19 -211 0 -225 1 -244 20 -19 19 -20 33 -20 252 0 201 2 234 17 250 15
16 36 18 249 18 l233 0 21 -27z"/>
<path d="M403 1060 c-17 -10 -37 -28 -42 -39 -7 -12 -11 -110 -11 -261 l0
-242 34 -34 34 -34 1861 0 c1421 0 1866 3 1886 12 51 23 55 46 55 309 l0 241
-34 34 -34 34 -1859 0 c-1822 0 -1859 0 -1890 -20z m3761 -52 c13 -19 16 -60
16 -244 0 -203 -2 -224 -19 -245 l-19 -24 -1856 0 c-2041 0 -1883 -5 -1887 60
-1 17 -1 123 0 237 1 173 4 209 17 222 14 14 198 16 1874 16 l1859 0 15 -22z"/>
<path d="M4378 1064 c-15 -8 -32 -23 -38 -34 -14 -25 -14 -505 0 -531 26 -48
39 -49 512 -49 486 0 471 -2 503 60 22 43 22 468 0 510 -31 60 -31 60 -512 60
-367 -1 -442 -3 -465 -16z m924 -51 c16 -15 18 -36 18 -249 0 -256 0 -258 -63
-269 -18 -3 -215 -5 -438 -3 -384 3 -408 4 -428 22 -20 18 -21 28 -21 249 0
200 2 233 17 249 15 17 43 18 456 18 396 0 442 -2 459 -17z"/>
<path d="M5474 1046 l-34 -34 0 -241 c0 -263 4 -286 55 -309 19 -9 218 -12
786 -12 815 0 802 -1 829 49 14 27 13 492 -1 524 -6 13 -23 31 -39 40 -26 15
-97 17 -795 17 l-767 0 -34 -34z m1590 -38 c13 -19 16 -60 16 -249 0 -217 -1
-227 -21 -245 -20 -18 -48 -19 -781 -19 l-760 0 -19 24 c-17 21 -19 42 -19
245 0 184 3 225 16 244 l15 22 769 0 769 0 15 -22z"/>
<path d="M7208 1064 c-53 -28 -58 -52 -58 -299 0 -333 -18 -315 318 -315 l244
0 34 34 34 34 0 244 c0 336 18 318 -317 318 -182 -1 -234 -4 -255 -16z m508
-48 c18 -14 19 -28 19 -250 0 -212 -2 -237 -18 -253 -16 -16 -42 -18 -220 -21
-111 -2 -216 -1 -234 3 -63 11 -63 13 -63 267 0 201 2 234 17 250 15 16 36 18
248 18 184 0 235 -3 251 -14z"/>
</g>
<g transform="translate(0.000000,525.000000) scale(0.100000,-0.100000)"
fill="#292929" stroke="none">
<path d="M350 5141 c0 -43 -33 -76 -115 -117 l-75 -37 0 -1882 c0 -2010 2
-1943 -47 -1997 -10 -11 -29 -24 -42 -29 -24 -9 -24 -11 -17 -102 9 -123 28
-209 70 -316 34 -84 36 -94 36 -209 l0 -120 54 -22 c74 -30 126 -76 135 -120
l7 -35 3704 0 3704 0 7 35 c9 44 62 91 135 121 l54 23 0 119 c0 113 2 124 35
206 41 104 62 195 71 319 7 90 6 92 -17 101 -13 5 -32 18 -42 29 -49 54 -47
-13 -47 1998 l0 1882 -66 31 c-79 37 -124 81 -124 122 l0 29 -3710 0 -3710 0
0 -29z m105 -63 c-56 -37 -155 -145 -198 -215 -18 -29 -35 -53 -39 -53 -5 0
-8 31 -8 70 l0 70 50 25 c60 30 119 81 130 111 7 18 18 23 52 26 62 5 64 0 13
-34z m7263 22 c10 -30 76 -89 132 -119 l60 -32 0 -70 c0 -38 -4 -69 -8 -69 -5
0 -18 17 -30 38 -11 20 -34 53 -51 72 l-30 35 -1 -30 c0 -17 13 -49 30 -75
l30 -45 0 -1860 c0 -1957 0 -1953 45 -2229 22 -137 21 -145 -27 -213 -77 -110
-169 -198 -268 -258 l-58 -35 -3480 0 -3481 0 -62 36 c-124 73 -295 263 -305
339 -2 19 3 78 12 132 43 269 44 299 44 2239 l0 1850 30 47 c50 79 168 190
239 225 l64 32 3456 0 c3426 0 3456 -1 3500 -20 24 -11 65 -36 91 -55 28 -20
59 -35 76 -35 l27 0 -24 26 c-13 14 -43 38 -66 53 -23 16 -41 30 -39 32 10 10
91 0 94 -11z m-7472 -2385 c-2 -957 -7 -1766 -11 -1798 -4 -31 -11 -55 -16
-51 -5 3 -9 785 -9 1921 0 1806 1 1917 18 1945 17 29 17 27 20 -124 1 -84 1
-936 -2 -1893z m7664 65 c0 -1138 -4 -1921 -9 -1924 -5 -4 -12 20 -16 51 -4
32 -9 913 -11 1958 l-4 1900 20 -33 c20 -32 20 -45 20 -1952z m-7750 -1885 c0
-102 -4 -185 -8 -185 -12 0 -41 129 -53 234 l-10 90 28 23 c15 12 31 22 36 23
4 0 7 -83 7 -185z m7842 160 c20 -19 26 -32 23 -53 -2 -15 -6 -55 -9 -90 -7
-71 -33 -182 -47 -197 -5 -5 -9 64 -9 178 0 103 3 187 8 187 4 0 19 -11 34
-25z m-7758 -616 c25 -42 145 -158 194 -189 57 -34 60 -48 10 -45 -32 2 -43 8
-57 31 -25 41 -88 94 -138 116 -42 19 -43 20 -43 68 0 28 4 50 8 50 4 0 16
-14 26 -31z m7666 -18 c0 -48 -1 -50 -42 -70 -55 -26 -115 -76 -139 -115 -15
-24 -25 -30 -58 -31 -48 -2 -45 11 10 45 44 27 174 154 198 194 23 38 31 32
31 -23z"/>
<path d="M391 4684 l-31 -26 0 -252 0 -252 28 -27 28 -27 1873 0 1873 0 29 30
30 29 -3 252 -3 251 -30 24 -30 24 -1867 0 -1866 0 -31 -26z m3769 -24 c19
-19 20 -33 20 -255 0 -222 -1 -236 -20 -255 -20 -20 -33 -20 -1872 -20 l-1852
0 -23 22 c-23 21 -23 24 -23 250 l0 229 25 24 24 25 1851 0 c1837 0 1850 0
1870 -20z"/>
<path d="M4359 4681 l-29 -29 0 -247 0 -247 29 -29 29 -29 457 0 457 0 29 29
29 29 0 247 0 247 -29 29 -29 29 -457 0 -457 0 -29 -29z m946 -26 l25 -24 0
-226 0 -226 -25 -24 -24 -25 -436 0 -436 0 -24 25 -25 24 0 226 0 226 25 24
24 25 436 0 436 0 24 -25z"/>
<path d="M5469 4681 l-29 -29 0 -247 0 -247 29 -29 29 -29 782 0 782 0 29 29
29 29 0 247 0 247 -29 29 -29 29 -782 0 -782 0 -29 -29z m1591 -21 c19 -19 20
-33 20 -255 0 -222 -1 -236 -20 -255 -20 -20 -33 -20 -780 -20 -747 0 -760 0
-780 20 -19 19 -20 33 -20 255 0 222 1 236 20 255 20 20 33 20 780 20 747 0
760 0 780 -20z"/>
<path d="M7189 4681 l-29 -29 0 -247 0 -247 29 -29 29 -29 250 0 249 0 26 26
c15 14 29 40 32 58 4 17 5 129 3 249 l-3 219 -33 29 -32 29 -246 0 -246 0 -29
-29z m525 -22 l26 -20 0 -232 c0 -223 -1 -231 -22 -254 -21 -23 -24 -23 -250
-23 l-229 0 -24 25 -25 24 0 226 0 226 25 24 24 25 224 0 c212 0 226 -1 251
-21z"/>
<path d="M416 3975 c-55 -29 -55 -30 -56 -302 l0 -251 31 -26 31 -26 1858 0
c1420 0 1865 3 1885 12 51 23 55 47 55 300 0 255 -2 263 -60 293 -25 13 -256
15 -1872 15 -1627 0 -1846 -2 -1872 -15z m3744 -45 c19 -19 20 -33 20 -252 0
-224 -1 -232 -22 -255 l-21 -23 -1849 0 -1849 0 -24 25 -25 24 0 227 c0 220 1
228 22 251 l21 23 1854 0 c1840 0 1853 0 1873 -20z"/>
<path d="M4394 3980 c-12 -4 -31 -21 -43 -36 -20 -26 -21 -37 -21 -271 l0
-245 29 -29 29 -29 457 0 457 0 29 29 29 29 0 246 0 246 -29 32 -29 33 -444 2
c-244 1 -453 -2 -464 -7z m911 -55 l25 -24 0 -226 0 -226 -25 -24 -24 -25
-436 0 -436 0 -24 25 -25 24 0 226 0 226 25 24 24 25 436 0 436 0 24 -25z"/>
<path d="M5493 3971 c-17 -11 -37 -29 -42 -40 -14 -25 -15 -470 -1 -505 21
-57 -1 -56 840 -56 l772 0 29 29 29 29 0 246 0 246 -29 32 -29 33 -769 3
c-747 2 -769 2 -800 -17z m1565 -37 c22 -15 22 -18 22 -255 0 -226 -1 -240
-20 -259 -20 -20 -33 -20 -778 -20 -749 0 -758 0 -780 20 -21 20 -22 27 -22
255 0 222 1 236 20 255 20 20 33 20 778 20 669 0 760 -2 780 -16z"/>
<path d="M7224 3980 c-12 -4 -31 -21 -43 -36 -20 -26 -21 -37 -21 -271 l0
-245 29 -29 29 -29 246 0 246 0 32 29 33 29 3 236 c4 340 18 326 -315 325
-120 0 -228 -4 -239 -9z m493 -52 c23 -21 23 -24 23 -250 l0 -229 -25 -24 -24
-25 -226 0 -226 0 -24 25 -25 24 0 226 0 226 25 24 24 25 227 0 c220 0 228 -1
251 -22z"/>
<path d="M415 3248 c-54 -29 -55 -35 -55 -301 l0 -249 29 -29 29 -29 1861 0
c1421 0 1866 3 1886 12 51 23 55 47 55 304 l0 236 -34 34 -34 34 -1859 0
c-1332 -1 -1864 -4 -1878 -12z m3745 -48 c19 -19 20 -33 20 -252 0 -201 -2
-234 -17 -250 -15 -17 -87 -18 -1879 -18 l-1863 0 -15 22 c-13 19 -16 60 -16
250 0 215 1 229 20 248 20 20 33 20 1875 20 1842 0 1855 0 1875 -20z"/>
<path d="M4381 3246 c-47 -26 -50 -44 -51 -304 l0 -244 29 -29 29 -29 457 0
457 0 29 29 29 29 0 242 c0 262 -4 285 -55 308 -39 18 -891 16 -924 -2z m928
-52 c20 -25 21 -39 21 -250 0 -211 -1 -225 -20 -244 -19 -19 -33 -20 -462 -20
-244 0 -448 4 -454 8 -29 19 -34 55 -34 265 0 202 1 216 21 241 l20 26 444 0
444 0 20 -26z"/>
<path d="M5474 3226 l-34 -34 0 -236 c0 -257 4 -281 55 -304 19 -9 218 -12
785 -12 567 0 766 3 785 12 51 23 55 47 55 298 0 251 -4 275 -55 298 -19 9
-219 12 -791 12 l-766 0 -34 -34z m1584 -22 c22 -15 22 -19 22 -251 0 -206 -2
-239 -17 -255 -15 -17 -53 -18 -781 -18 -698 0 -767 1 -784 17 -16 15 -18 36
-18 250 0 220 1 234 20 253 20 20 33 20 778 20 669 0 760 -2 780 -16z"/>
<path d="M7211 3246 c-47 -26 -50 -44 -51 -304 l0 -244 29 -29 29 -29 246 0
246 0 32 29 33 29 3 234 c2 207 1 237 -15 268 -10 19 -29 40 -43 47 -36 18
-476 17 -509 -1z m509 -46 c19 -19 20 -33 20 -248 0 -190 -3 -231 -16 -250
-15 -22 -18 -22 -255 -22 -226 0 -240 1 -259 20 -19 19 -20 33 -20 244 0 211
1 225 21 250 l20 26 235 0 c221 0 235 -1 254 -20z"/>
<path d="M389 2501 l-29 -29 0 -252 0 -252 29 -29 29 -29 1861 0 c1421 0 1866
3 1886 12 51 23 55 47 55 298 0 251 -4 275 -55 298 -20 9 -465 12 -1886 12
l-1861 0 -29 -29z m3775 -33 c13 -19 16 -60 16 -250 0 -215 -1 -229 -20 -248
-20 -20 -33 -20 -1875 -20 -1842 0 -1855 0 -1875 20 -19 19 -20 33 -20 250 0
217 1 231 20 250 20 20 33 20 1879 20 l1860 0 15 -22z"/>
<path d="M4381 2516 c-47 -26 -50 -45 -51 -294 0 -253 4 -277 55 -300 19 -9
145 -12 461 -12 476 0 479 0 503 58 9 20 11 100 9 270 -3 236 -4 242 -26 264
l-23 23 -452 2 c-363 2 -457 0 -476 -11z m929 -48 c19 -21 20 -34 20 -244 0
-209 -1 -223 -21 -248 l-20 -26 -444 0 -444 0 -20 26 c-20 25 -21 39 -21 241
0 210 5 246 34 265 6 4 210 8 453 8 442 0 442 0 463 -22z"/>
<path d="M5491 2516 c-47 -26 -50 -45 -51 -294 0 -253 4 -277 55 -300 19 -9
218 -12 785 -12 567 0 766 3 785 12 51 23 55 47 55 298 0 251 -4 275 -55 298
-40 18 -1541 16 -1574 -2z m1571 -43 c16 -15 18 -36 18 -251 0 -205 -2 -238
-17 -254 -15 -17 -53 -18 -777 -18 -673 0 -764 2 -784 16 -22 15 -22 19 -22
251 0 206 2 239 17 255 15 17 53 18 781 18 698 0 767 -1 784 -17z"/>
<path d="M7210 2517 c-46 -23 -50 -46 -50 -295 0 -253 4 -277 55 -300 18 -8
99 -12 258 -12 323 0 307 -16 307 310 0 326 16 310 -310 310 -168 0 -242 -4
-260 -13z m510 -47 c19 -19 20 -33 20 -250 0 -217 -1 -231 -20 -250 -19 -19
-33 -20 -255 -20 -228 0 -235 1 -255 22 -19 21 -20 34 -20 250 0 215 1 229 20
248 19 19 33 20 255 20 222 0 236 -1 255 -20z"/>
<path d="M391 1774 l-31 -26 0 -252 c0 -274 2 -282 57 -305 21 -8 503 -11
1886 -9 l1859 3 29 33 29 32 0 236 c0 255 -4 279 -55 302 -20 9 -465 12 -1885
12 l-1858 0 -31 -26z m3763 -25 l26 -20 0 -235 c0 -221 -1 -235 -20 -254 -20
-20 -33 -20 -1875 -20 -1842 0 -1855 0 -1875 20 -19 19 -20 33 -20 250 l0 231
25 24 24 25 1844 0 1844 0 27 -21z"/>
<path d="M4359 1771 l-29 -29 0 -247 0 -247 34 -34 34 -34 441 0 c320 0 447 3
466 12 51 23 55 46 55 308 l0 242 -29 29 -29 29 -457 0 -457 0 -29 -29z m946
-25 l25 -25 0 -224 c0 -212 -1 -226 -21 -251 l-20 -26 -444 0 -444 0 -20 26
c-20 25 -21 39 -21 251 0 223 0 224 24 248 l24 24 436 1 437 0 24 -24z"/>
<path d="M5491 1786 c-47 -26 -50 -45 -51 -300 l0 -238 34 -34 34 -34 772 0
772 0 34 34 35 35 -3 250 c-3 245 -3 251 -26 273 l-23 23 -777 2 c-632 2 -781
0 -801 -11z m1546 -27 c15 -5 31 -16 35 -22 4 -7 8 -119 8 -249 0 -234 0 -237
-22 -252 -20 -14 -111 -16 -780 -16 -745 0 -758 0 -778 20 -19 19 -20 33 -20
254 l0 235 26 20 c26 21 33 21 765 21 496 0 747 -3 766 -11z"/>
<path d="M7189 1771 l-29 -29 0 -247 0 -247 34 -34 34 -34 231 0 c339 0 323
-16 319 326 l-3 236 -33 29 -32 29 -246 0 -246 0 -29 -29z m532 -30 c17 -21
19 -42 19 -252 0 -216 -1 -230 -20 -249 -19 -19 -33 -20 -254 -20 l-235 0 -20
26 c-20 25 -21 39 -21 246 0 228 4 252 43 268 12 5 123 8 245 7 222 -2 224 -2
243 -26z"/>
<path d="M391 1044 l-31 -26 0 -253 0 -252 26 -27 27 -26 1874 0 1875 0 29 30
30 29 -3 252 -3 251 -28 24 -28 24 -1869 0 -1868 0 -31 -26z m3769 -24 c19
-19 20 -33 20 -255 0 -222 -1 -236 -20 -255 -20 -20 -33 -20 -1872 -20 l-1852
0 -23 22 c-23 21 -23 24 -23 250 l0 229 25 24 24 25 1851 0 c1837 0 1850 0
1870 -20z"/>
<path d="M4359 1041 l-29 -29 0 -247 0 -247 29 -29 29 -29 457 0 457 0 29 29
29 29 0 247 0 247 -29 29 -29 29 -457 0 -457 0 -29 -29z m946 -26 l25 -24 0
-226 0 -226 -25 -24 -24 -25 -436 0 -436 0 -24 25 -25 24 0 226 0 226 25 24
24 25 436 0 436 0 24 -25z"/>
<path d="M5473 1046 l-28 -24 -3 -251 -3 -252 30 -29 29 -30 782 0 782 0 29
29 29 29 0 247 0 247 -29 29 -29 29 -781 0 -780 0 -28 -24z m1587 -26 c19 -19
20 -33 20 -259 0 -237 0 -240 -22 -255 -20 -14 -111 -16 -780 -16 -745 0 -758
0 -778 20 -19 19 -20 33 -20 255 0 222 1 236 20 255 20 20 33 20 780 20 747 0
760 0 780 -20z"/>
<path d="M7189 1041 l-29 -29 0 -247 0 -247 29 -29 29 -29 249 0 c262 1 262 1
296 50 15 21 17 54 17 258 l0 234 -34 34 -34 34 -247 0 -247 0 -29 -29z m526
-26 l25 -24 0 -227 c0 -302 27 -274 -272 -274 l-229 0 -24 25 -25 24 0 226 0
226 25 24 24 25 226 0 226 0 24 -25z"/>
</g>
</g></svg>