<svg xmlns="http://www.w3.org/2000/svg" viewBox="0 0 805 354"><g id="geometry"><g transform="translate(0.000000,354.000000) scale(0.100000,-0.100000)"
fill="#f1f1f1" stroke="none">
<path d="M7007 3498 c-19 -24 -44 -62 -56 -85 l-21 -43 -3164 0 -3163 0 -63
-32 c-50 -26 -76 -33 -124 -34 -34 -1 -65 -2 -71 -4 -27 -7 -50 3 -82 35 -34
34 -38 35 -109 35 l-74 0 0 -1610 0 -1610 73 0 c66 0 76 3 97 25 37 40 77 56
104 43 17 -7 29 -7 43 1 26 13 72 1 144 -39 l54 -30 3374 0 3374 0 54 30 c29
17 53 27 53 24 0 -4 6 -2 13 3 21 17 58 22 82 11 16 -7 29 -7 43 1 24 13 65
-5 102 -44 21 -22 31 -25 97 -25 l73 0 0 1230 c0 677 3 1230 8 1230 4 0 12 10
18 23 6 12 25 45 42 72 38 60 67 141 77 213 6 48 5 52 -12 46 -10 -3 -1 5 20
17 40 25 53 66 18 56 -16 -4 -20 5 -30 64 -12 76 -38 149 -52 149 -5 0 -9 9
-9 19 0 71 -75 222 -126 256 -36 23 -43 10 -12 -23 14 -15 36 -47 48 -72 l23
-45 -55 51 c-30 29 -78 64 -106 78 -51 26 -53 26 -289 26 -271 0 -269 0 -382
-91 -46 -38 -60 -45 -51 -28 26 50 52 79 63 73 7 -4 9 -4 5 1 -4 4 -3 16 3 26
19 37 -19 20 -54 -23z m538 -12 c28 -7 75 -25 106 -39 60 -29 169 -121 169
-143 0 -8 4 -14 8 -14 17 0 62 -98 62 -135 0 -20 -9 -81 -20 -136 -16 -78 -29
-112 -60 -160 -35 -55 -70 -145 -70 -182 0 -19 -24 -39 -35 -29 -5 4 -5 1 -1
-6 4 -7 12 -10 17 -7 5 4 9 0 9 -8 0 -29 -118 -102 -151 -94 -11 3 -17 1 -13
-4 3 -5 0 -9 -5 -9 -6 0 -11 7 -11 15 0 8 5 15 10 15 6 0 1 9 -10 20 -11 11
-20 25 -20 30 0 6 -9 10 -20 10 -24 0 -24 1 -4 -40 14 -26 15 -39 5 -70 -28
-95 -156 -103 -199 -14 -15 33 -15 39 0 80 15 42 15 44 -3 44 -22 0 -39 -29
-39 -65 l0 -26 -52 27 c-103 55 -104 56 -111 130 -7 70 -43 163 -79 201 -11
12 -22 32 -23 45 -2 13 -10 43 -19 68 -12 38 -36 155 -36 183 0 5 4 5 10 2 5
-3 7 0 4 9 -7 19 26 77 39 69 6 -3 7 -2 4 4 -8 12 41 79 54 75 6 -1 8 2 4 7
-7 12 81 84 137 112 89 45 245 61 343 35z m-7306 -204 c24 -17 50 -32 58 -32
8 0 28 -7 45 -16 29 -15 34 -15 65 0 18 9 42 16 51 16 10 0 50 16 91 35 l73
35 3144 0 3144 0 0 -25 c0 -14 -9 -38 -20 -53 -22 -30 -50 -130 -50 -177 0
-26 -4 -31 -21 -31 -38 2 -32 -21 13 -49 24 -15 34 -24 24 -21 -18 6 -18 2
-13 -53 11 -102 58 -200 148 -305 53 -63 136 -119 221 -151 40 -15 92 -35 116
-46 51 -23 107 -24 146 -4 15 8 36 15 45 15 25 0 160 47 187 65 13 8 26 15 29
15 3 0 5 -249 5 -552 0 -588 6 -694 48 -928 24 -135 26 -169 29 -487 l4 -343
-36 0 c-28 0 -42 7 -61 29 -13 16 -46 37 -72 47 -26 9 -51 21 -56 26 -13 10
-49 10 -62 0 -5 -5 -29 -14 -54 -21 -25 -8 -71 -26 -102 -42 l-57 -29 -3351 0
-3351 0 -57 29 c-31 16 -77 34 -102 42 -25 7 -49 16 -55 21 -12 10 -48 10 -60
0 -6 -5 -32 -17 -58 -26 -26 -10 -55 -29 -64 -42 -12 -19 -24 -24 -55 -24
l-40 0 5 323 c2 177 12 399 20 492 44 488 46 1013 6 1510 -12 143 -24 380 -26
526 l-5 267 34 -2 c20 -1 51 -14 77 -34z m6724 -415 c-3 -5 -2 -7 4 -4 21 13
82 -81 68 -104 -6 -8 -4 -10 4 -5 8 5 11 3 10 -5 -1 -8 0 -21 4 -29 10 -28 15
-60 9 -60 -17 1 -93 122 -87 137 2 8 0 11 -5 8 -6 -3 -11 0 -12 7 -2 24 -5 33
-16 61 -16 39 -15 43 8 22 11 -10 17 -22 13 -28z m945 11 c-20 -59 -50 -133
-60 -146 -9 -10 -14 -10 -26 0 -13 11 -14 10 -4 -8 9 -18 8 -25 -7 -38 -17
-16 -18 -15 -16 18 4 47 14 74 42 119 14 22 28 35 35 31 7 -4 8 -3 4 5 -5 7 1
20 15 32 29 25 29 25 17 -13z m-89 -1101 c-1 -684 -3 -761 -14 -677 -37 267
-46 457 -43 947 3 468 4 483 23 497 11 8 23 12 27 10 5 -3 8 -353 7 -777z
m-7665 -97 c-11 -667 -20 -612 -21 125 l0 710 14 -225 c10 -167 12 -324 7
-610z"/>
<path d="M7385 3454 c9 -9 19 -13 23 -10 3 4 0 11 -8 16 -24 15 -33 11 -15 -6z"/>
<path d="M7440 3460 c0 -5 7 -10 15 -10 8 0 15 -5 15 -12 0 -6 3 -8 6 -5 8 8
-14 37 -27 37 -5 0 -9 -4 -9 -10z"/>
<path d="M7650 3431 c12 -9 10 -11 -12 -11 -21 0 -28 -5 -28 -20 0 -13 7 -20
19 -20 17 0 21 7 30 45 1 5 -3 11 -11 13 -9 2 -8 0 2 -7z"/>
<path d="M7451 3423 c-2 -20 11 -43 24 -43 6 0 17 10 23 23 l11 22 0 -22 c1
-22 31 -34 31 -13 0 6 14 10 30 10 50 0 34 20 -17 21 -62 2 -77 -1 -84 -13 -4
-6 -9 -3 -12 8 -2 10 -5 14 -6 7z"/>
<path d="M7189 3418 c0 -2 -3 -14 -5 -28 -2 -13 -10 -28 -17 -32 -9 -6 -9 -8
0 -8 6 0 14 -17 16 -37 3 -31 4 -29 5 15 2 39 6 52 17 52 8 0 15 9 15 20 0 11
-7 20 -15 20 -8 0 -15 -1 -16 -2z"/>
<path d="M7277 3414 c-3 -3 -3 -12 0 -20 6 -16 33 -19 33 -4 0 14 46 13 70 -2
22 -14 33 -8 25 14 -5 11 -22 16 -64 17 -32 0 -60 -2 -64 -5z"/>
<path d="M7453 3168 c7 -4 1 -11 -15 -17 -14 -5 -29 -15 -33 -22 -10 -15 54
-7 107 13 49 19 36 37 -24 35 -25 -1 -41 -5 -35 -9z"/>
<path d="M7771 2843 c-10 -26 -10 -27 4 -9 8 11 15 23 15 28 0 15 -7 8 -19
-19z"/>
<path d="M2900 2894 c-19 -2 -299 -5 -622 -6 -322 -2 -590 -6 -594 -10 -4 -5
-5 -10 -2 -14 7 -6 3252 -12 4011 -7 509 3 656 12 440 26 -106 7 -3176 18
-3233 11z"/>
<path d="M6966 2841 c-4 -5 -2 -12 3 -15 5 -4 12 -2 15 3 4 5 2 12 -3 15 -5 4
-12 2 -15 -3z"/>
</g>
<g transform="translate(0.000000,354.000000) scale(0.100000,-0.100000)"
fill="#e5e5e5" stroke="none">
<path d="M7018 3508 c-17 -18 -44 -57 -60 -85 l-30 -53 -3163 0 -3162 0 -63
-32 c-50 -26 -76 -33 -124 -34 -34 -1 -65 -2 -71 -4 -26 -6 -48 3 -84 35 -36
33 -42 35 -110 35 l-71 0 0 -1610 0 -1610 73 0 c70 0 74 1 106 34 38 39 76 53
97 35 11 -9 21 -9 39 -1 30 14 93 -3 159 -42 l45 -26 3370 0 3371 0 53 29 c70
40 134 56 153 40 11 -9 21 -9 40 0 30 13 53 4 100 -41 29 -27 35 -29 100 -26
l69 3 5 1230 5 1230 47 68 c46 66 78 147 93 235 6 37 4 42 -11 42 -13 0 -7 8
19 25 39 27 51 61 18 52 -16 -4 -20 5 -30 64 -12 76 -39 151 -50 144 -4 -2
-13 24 -19 57 -15 79 -52 154 -99 201 -40 41 -65 50 -39 15 39 -54 76 -113 76
-122 0 -6 -19 8 -42 31 -24 23 -70 58 -102 77 l-60 36 -238 0 c-234 0 -240 0
-287 -25 -27 -13 -77 -50 -110 -81 -73 -68 -64 -29 19 79 30 38 5 34 -32 -5z
m522 -19 c173 -40 350 -213 350 -341 0 -24 -9 -85 -20 -137 -15 -72 -28 -107
-54 -146 -43 -62 -76 -153 -76 -210 0 -39 -3 -44 -47 -72 -61 -38 -81 -49
-115 -57 -23 -5 -28 -3 -28 13 0 33 -22 71 -40 71 -16 0 -16 -3 -2 -42 13 -39
13 -47 -1 -81 -12 -26 -27 -42 -51 -52 -48 -20 -67 -19 -107 8 -45 30 -60 83
-36 132 16 34 16 35 -3 35 -23 0 -40 -28 -40 -65 l0 -25 -52 26 c-94 47 -108
61 -108 104 0 59 -37 164 -76 215 -39 52 -73 171 -77 272 -2 54 1 64 42 126
100 155 243 236 416 236 44 0 100 -4 125 -10z m-7318 -187 c7 -10 36 -28 63
-41 28 -13 60 -28 72 -33 17 -8 28 -7 45 4 13 8 40 18 60 22 21 4 63 20 94 36
l56 30 3152 -2 3151 -3 -3 -30 c-2 -16 -11 -34 -19 -40 -17 -13 -53 -135 -53
-181 0 -25 -4 -30 -21 -30 -38 2 -32 -21 13 -48 25 -15 36 -26 26 -26 -22 0
-23 -34 -4 -108 49 -182 211 -353 386 -406 30 -10 71 -26 91 -37 40 -21 99
-25 130 -9 11 6 53 19 93 30 41 10 97 30 125 44 28 14 53 26 56 26 3 0 5 -251
5 -557 0 -593 6 -703 52 -948 20 -106 22 -159 25 -462 l4 -343 -40 0 c-29 0
-43 5 -50 19 -6 10 -36 31 -68 46 -32 16 -66 32 -76 37 -19 9 -162 -37 -225
-73 -32 -19 -115 -19 -3388 -19 l-3355 0 -47 24 c-76 38 -202 78 -215 68 -7
-4 -32 -15 -56 -22 -24 -8 -56 -27 -71 -42 -21 -20 -38 -28 -64 -28 l-36 0 0
268 c0 147 4 314 10 372 58 626 63 1201 13 1755 -8 94 -17 295 -20 448 l-5
277 40 0 c28 0 45 -6 54 -18z m6685 -154 c-2 -13 -4 -5 -4 17 -1 22 1 32 4 23
2 -10 2 -28 0 -40z m10 -120 c-3 -7 -5 -2 -5 12 0 14 2 19 5 13 2 -7 2 -19 0
-25z m983 -179 c-30 -89 -101 -202 -116 -186 -4 3 3 37 15 76 15 48 35 87 67
126 25 31 48 54 51 52 2 -3 -6 -33 -17 -68z m-905 3 c32 -41 50 -88 70 -177
l6 -30 -30 35 c-61 71 -133 238 -96 224 7 -3 30 -26 50 -52z m824 -1080 c-1
-427 -4 -763 -6 -747 -2 17 -13 93 -25 170 -19 127 -21 196 -25 734 l-5 595
23 17 c13 10 27 15 31 13 4 -3 7 -355 7 -782z m-7666 33 c0 -269 -5 -539 -10
-600 -8 -83 -10 63 -10 605 0 542 2 687 10 600 5 -63 10 -335 10 -605z"/>
<path d="M7187 3414 c-9 -10 4 -34 19 -34 8 0 14 9 14 20 0 19 -19 27 -33 14z"/>
<path d="M7280 3400 c0 -11 7 -20 15 -20 8 0 15 5 15 10 0 6 11 10 25 10 14 0
25 5 25 10 0 6 -18 10 -40 10 -33 0 -40 -3 -40 -20z"/>
<path d="M7370 3405 c0 -15 26 -32 36 -23 2 3 2 13 -2 22 -8 20 -34 21 -34 1z"/>
<path d="M7466 3404 c-8 -22 -8 -24 8 -24 12 0 26 20 26 36 0 12 -29 2 -34
-12z"/>
<path d="M7510 3400 c0 -11 7 -20 15 -20 8 0 15 5 15 10 0 6 14 10 31 10 17 0
28 4 24 10 -3 6 -24 10 -46 10 -32 0 -39 -3 -39 -20z"/>
<path d="M7617 3414 c-14 -15 -6 -34 14 -34 14 0 19 5 17 17 -3 18 -20 27 -31
17z"/>
<path d="M7450 3153 c-51 -25 -53 -27 -27 -31 33 -4 118 28 114 43 -6 19 -32
15 -87 -12z"/>
<path d="M2418 2891 c-368 -4 -671 -11 -675 -14 -3 -4 -4 -9 -2 -11 20 -19
4429 -16 4429 4 0 4 -87 10 -192 13 -305 11 -2824 16 -3560 8z"/>
</g>
<g transform="translate(0.000000,354.000000) scale(0.100000,-0.100000)"
fill="#dcdcdc" stroke="none">
<path d="M7015 3504 c-19 -22 -45 -60 -58 -86 l-22 -47 -3166 -1 -3166 0 -44
-24 c-64 -35 -141 -56 -163 -44 -12 7 -25 7 -40 0 -28 -12 -72 5 -109 42 -25
25 -33 27 -95 24 l-67 -3 0 -1605 0 -1605 69 -3 c67 -3 70 -2 105 31 43 41 73
52 101 37 16 -8 25 -8 35 0 17 15 78 -1 157 -41 l57 -29 3364 0 3363 0 55 29
c70 38 133 55 157 42 11 -6 24 -6 34 0 26 15 63 1 101 -37 34 -34 37 -35 103
-32 l69 3 5 1230 5 1230 46 68 c45 64 80 157 94 241 6 38 6 38 -22 32 -23 -5
-19 -1 20 24 48 30 66 67 27 57 -16 -4 -20 2 -26 42 -10 66 -44 172 -53 166
-5 -2 -14 23 -21 57 -15 78 -58 163 -104 207 -40 39 -49 28 -12 -16 23 -27 56
-86 56 -98 0 -4 -24 14 -52 40 -29 26 -75 60 -103 76 l-50 29 -238 0 c-233 0
-239 0 -286 -25 -27 -13 -77 -50 -110 -81 -53 -49 -60 -53 -51 -29 6 16 27 50
47 77 44 60 37 74 -12 22z m568 -28 c125 -45 229 -132 283 -238 30 -58 30
-112 4 -232 -15 -65 -31 -106 -59 -150 -43 -67 -71 -148 -71 -207 0 -43 -20
-61 -112 -104 -68 -32 -74 -31 -82 7 -7 36 -23 58 -42 58 -10 0 -10 -7 2 -37
48 -114 -96 -206 -178 -113 -32 35 -36 76 -12 121 15 30 15 30 -8 27 -18 -2
-25 -12 -32 -45 l-10 -41 -66 33 c-36 18 -71 39 -77 47 -6 7 -13 39 -16 71 -6
61 -53 176 -87 212 -22 23 -44 102 -61 215 l-11 79 32 58 c68 122 156 194 294
244 79 27 222 25 309 -5z m-7337 -191 c25 -19 53 -35 63 -35 9 0 27 -7 40 -17
20 -13 27 -14 44 -4 11 7 43 20 71 28 28 8 72 26 98 39 l47 24 3155 0 3155 0
-6 -32 c-3 -18 -12 -37 -19 -43 -17 -14 -43 -94 -50 -159 -5 -45 -9 -53 -24
-49 -34 9 -30 -16 7 -43 56 -41 58 -43 33 -37 -22 6 -23 5 -16 -46 27 -205
204 -407 411 -471 22 -6 58 -21 81 -31 48 -22 95 -24 132 -5 15 7 52 19 82 25
30 6 85 26 122 44 l67 33 4 -621 c4 -613 4 -622 30 -789 15 -93 31 -185 37
-205 6 -21 10 -178 10 -368 l0 -333 -38 0 c-29 0 -45 7 -66 29 -16 16 -42 35
-60 41 -17 6 -46 19 -63 27 -25 12 -36 13 -46 4 -8 -6 -39 -18 -68 -27 -30 -9
-77 -27 -105 -40 l-51 -24 -3359 2 -3359 3 -85 34 c-47 18 -100 40 -117 48
-22 11 -37 13 -45 6 -7 -5 -34 -17 -59 -27 -25 -9 -56 -28 -69 -41 -17 -18
-34 -25 -62 -25 l-38 0 0 268 c0 151 6 342 15 437 54 635 57 1137 8 1679 -8
94 -17 298 -20 454 l-5 282 36 0 c26 0 49 -10 82 -35z m6661 -137 c-2 -18 -4
-6 -4 27 0 33 2 48 4 33 2 -15 2 -42 0 -60z m10 -115 c-3 -10 -5 -4 -5 12 0
17 2 24 5 18 2 -7 2 -21 0 -30z m73 -174 c35 -45 63 -110 74 -174 l7 -40 -30
35 c-37 43 -101 161 -101 187 0 10 -7 29 -16 42 l-17 23 25 -16 c14 -9 40 -35
58 -57z m911 -10 c-20 -62 -56 -126 -101 -179 l-22 -25 7 45 c8 62 45 139 90
189 21 23 39 40 42 38 2 -2 -6 -33 -16 -68z m-82 -1071 c-1 -442 -5 -761 -10
-733 -40 251 -42 272 -46 881 l-5 602 23 16 c13 9 27 16 31 16 5 0 7 -352 7
-782z m-7659 305 c12 -248 8 -454 -15 -811 -12 -184 -12 -150 -12 533 0 723 3
758 27 278z"/>
<path d="M7190 3401 c0 -12 6 -21 16 -21 9 0 14 7 12 17 -5 25 -28 28 -28 4z"/>
<path d="M7280 3400 c0 -11 7 -20 15 -20 8 0 15 5 15 10 0 6 11 10 25 10 14 0
25 5 25 10 0 6 -18 10 -40 10 -33 0 -40 -3 -40 -20z"/>
<path d="M7377 3414 c-9 -10 4 -34 19 -34 16 0 16 2 8 24 -6 17 -16 20 -27 10z"/>
<path d="M7470 3400 c-8 -16 -8 -20 4 -20 16 0 29 27 16 35 -5 3 -14 -4 -20
-15z"/>
<path d="M7510 3400 c0 -11 7 -20 15 -20 8 0 15 5 15 10 0 6 11 10 25 10 14 0
25 5 25 10 0 6 -18 10 -40 10 -33 0 -40 -3 -40 -20z"/>
<path d="M7617 3414 c-14 -15 -6 -34 14 -34 14 0 19 5 17 17 -3 18 -20 27 -31
17z"/>
<path d="M7450 3153 c-51 -26 -53 -28 -27 -31 33 -4 118 28 114 43 -7 19 -32
15 -87 -12z"/>
<path d="M2645 2890 c-935 -12 -905 -11 -865 -22 45 -13 4274 -14 4345 -1 37
7 -43 11 -300 16 -552 11 -2531 15 -3180 7z"/>
</g>
<g transform="translate(0.000000,354.000000) scale(0.100000,-0.100000)"
fill="#888888" stroke="none">
<path d="M7138 3509 c-31 -17 -83 -56 -114 -87 -53 -52 -57 -54 -50 -27 4 16
21 49 37 73 17 25 28 46 25 49 -7 7 -75 -87 -88 -123 l-12 -34 -3173 0 -3174
0 -47 -24 c-66 -34 -128 -49 -150 -37 -11 6 -24 6 -35 -1 -24 -13 -78 6 -107
37 -21 22 -32 25 -97 25 l-73 0 0 -1600 0 -1600 73 0 c62 0 77 3 93 21 33 37
65 47 144 44 59 -2 90 -9 144 -34 l69 -31 3367 0 3368 0 66 31 c54 25 82 32
144 34 81 3 112 -7 146 -44 16 -18 31 -21 90 -21 l72 0 -1 1223 -1 1222 48 71
c53 79 86 160 95 237 l6 49 -30 -15 c-38 -20 -47 -32 -62 -87 -24 -84 -120
-234 -138 -216 -10 10 27 136 51 174 35 56 114 130 174 164 52 30 65 56 25 50
-18 -2 -21 4 -26 55 -4 32 -14 81 -24 108 l-18 50 -6 -105 c-7 -120 -16 -170
-31 -170 -6 0 -8 7 -4 15 3 8 10 54 17 101 19 146 -6 279 -69 373 -20 30 -43
57 -51 59 -8 3 -4 -9 11 -29 31 -41 58 -93 58 -111 0 -7 -24 11 -52 39 -29 29
-80 68 -112 87 l-60 36 -230 0 -231 -1 -57 -30z m407 -14 c136 -36 273 -143
329 -259 25 -53 27 -65 21 -124 -11 -106 -40 -197 -80 -258 -42 -62 -60 -113
-70 -196 -6 -51 -10 -56 -53 -85 -38 -25 -127 -63 -147 -63 -3 0 -5 11 -5 24
0 37 -18 76 -35 76 -13 0 -13 -4 1 -34 36 -74 -16 -156 -98 -156 -83 0 -136
77 -104 153 13 31 13 37 1 37 -8 0 -19 -18 -26 -42 -7 -24 -13 -44 -15 -46 -3
-5 -109 47 -131 65 -17 13 -25 35 -32 85 -10 74 -38 145 -78 196 -32 42 -61
148 -69 251 -5 75 -5 77 33 140 68 114 183 201 313 237 63 17 175 17 245 -1z
m-7312 -199 c18 -13 43 -27 57 -31 14 -4 39 -14 57 -22 28 -13 35 -13 62 1 16
9 38 16 48 16 10 0 47 14 81 30 l64 30 3156 0 3157 0 1 -132 c0 -73 5 -152 11
-175 6 -24 7 -43 3 -43 -13 0 -21 42 -27 159 -5 100 -8 110 -19 90 -13 -24
-27 -81 -39 -152 -4 -27 -10 -37 -22 -35 -35 6 -21 -21 24 -48 62 -36 149
-118 179 -169 23 -40 58 -165 48 -174 -17 -18 -144 197 -144 245 0 16 -12 31
-37 48 -20 14 -40 23 -43 21 -9 -6 5 -84 26 -147 20 -60 99 -181 150 -230 53
-50 147 -105 219 -128 33 -10 78 -28 100 -39 47 -25 64 -26 113 -5 20 9 62 22
93 30 45 10 128 43 181 72 3 2 8 -268 11 -600 4 -633 6 -661 57 -943 17 -100
20 -155 20 -445 l0 -330 -38 0 c-28 0 -45 7 -62 25 -13 13 -44 32 -69 41 -25
10 -50 21 -55 26 -13 11 -50 10 -62 -1 -5 -5 -36 -16 -69 -26 -33 -9 -75 -25
-93 -36 -33 -19 -96 -19 -3398 -19 -3291 0 -3366 0 -3402 19 -21 11 -64 27
-97 36 -33 10 -64 21 -70 26 -11 11 -48 12 -60 1 -6 -5 -31 -16 -56 -26 -26
-9 -55 -26 -64 -36 -13 -14 -31 -20 -60 -20 l-42 0 -2 222 c-1 151 5 297 18
453 60 692 61 1210 4 1805 -16 172 -29 599 -19 625 9 24 72 19 109 -9z m-74
-1047 c19 -337 13 -731 -15 -1129 -16 -209 -22 -16 -22 686 -1 870 8 975 37
443z m7660 -481 c-1 -483 -5 -783 -10 -753 -41 239 -43 270 -46 894 l-4 613
22 24 c12 13 26 24 31 24 4 0 7 -361 7 -802z"/>
<path d="M7190 3395 c0 -8 5 -15 10 -15 6 0 10 7 10 15 0 8 -4 15 -10 15 -5 0
-10 -7 -10 -15z"/>
<path d="M7280 3395 c0 -8 5 -15 10 -15 6 0 10 4 10 9 0 6 15 12 33 14 28 3
26 4 -10 5 -32 2 -43 -2 -43 -13z"/>
<path d="M7380 3395 c0 -8 7 -15 15 -15 9 0 12 6 9 15 -4 8 -10 15 -15 15 -5
0 -9 -7 -9 -15z"/>
<path d="M7470 3394 c0 -8 5 -12 10 -9 6 3 10 10 10 16 0 5 -4 9 -10 9 -5 0
-10 -7 -10 -16z"/>
<path d="M7510 3395 c0 -8 5 -15 10 -15 6 0 10 4 10 9 0 6 15 12 33 14 28 3
26 4 -10 5 -32 2 -43 -2 -43 -13z"/>
<path d="M7620 3395 c0 -8 5 -15 10 -15 6 0 10 7 10 15 0 8 -4 15 -10 15 -5 0
-10 -7 -10 -15z"/>
<path d="M7450 3148 c-32 -15 -40 -22 -27 -25 20 -5 107 27 107 40 0 13 -34 7
-80 -15z"/>
<path d="M2465 2880 c-375 -5 -398 -6 -270 -14 172 -12 3442 -10 3575 1 218
19 -2081 28 -3305 13z"/>
</g>
<g transform="translate(0.000000,354.000000) scale(0.100000,-0.100000)"
fill="#292929" stroke="none">
<path d="M7147 3508 c-32 -17 -87 -59 -124 -92 -71 -65 -77 -58 -27 33 20 36
21 41 6 28 -10 -9 -29 -40 -42 -67 l-23 -50 -3168 0 -3167 0 -66 -31 c-52 -24
-83 -32 -143 -34 -81 -4 -112 6 -147 44 -16 17 -31 21 -88 21 l-68 0 0 -1600
0 -1600 69 0 c55 0 73 4 83 18 28 37 50 46 126 49 64 2 88 -2 145 -24 37 -15
70 -30 73 -35 3 -4 1524 -8 3380 -8 2969 0 3377 2 3397 15 80 52 244 70 304
34 17 -11 34 -26 37 -34 4 -11 23 -15 76 -15 l70 0 0 1221 0 1222 47 71 c49
74 86 162 98 234 8 47 6 48 -34 27 -21 -10 -31 -26 -40 -61 -23 -89 -126 -252
-147 -232 -10 11 14 115 38 162 29 56 103 131 170 173 57 36 74 57 41 51 -13
-2 -19 5 -21 22 -5 43 -34 160 -41 164 -4 3 -8 -23 -9 -57 -3 -90 -12 -171
-22 -187 -17 -28 -22 0 -11 63 32 185 -7 395 -86 458 -12 10 -11 5 5 -18 26
-37 55 -103 49 -110 -3 -2 -29 20 -58 50 -30 29 -84 70 -120 90 l-66 37 -219
0 -219 -1 -58 -31z m435 -19 c86 -30 153 -74 218 -145 103 -113 119 -178 80
-343 -15 -63 -32 -103 -60 -144 -39 -59 -63 -124 -75 -209 -7 -53 -25 -70
-117 -113 -73 -34 -84 -33 -92 13 -7 41 -22 70 -31 60 -4 -3 -2 -15 4 -26 17
-33 13 -91 -9 -122 -24 -33 -78 -54 -119 -45 -68 15 -109 102 -76 165 12 24
13 31 3 28 -7 -3 -19 -22 -27 -44 -8 -21 -16 -41 -17 -43 -6 -7 -68 22 -116
53 -38 24 -48 36 -48 58 0 75 -36 177 -86 243 -30 40 -53 130 -61 236 -5 81
-4 89 22 137 33 61 115 150 171 186 118 76 305 100 436 55z m-7332 -198 c24
-17 49 -31 57 -31 8 0 28 -7 44 -16 27 -13 33 -14 47 -1 10 7 42 19 72 26 31
6 70 20 88 31 32 20 60 20 3150 20 1714 0 3141 0 3170 0 49 0 53 -2 47 -20
-10 -32 -7 -219 5 -279 11 -59 10 -64 -7 -53 -7 5 -17 58 -24 127 -13 130 -20
130 -43 0 -11 -63 -15 -70 -34 -67 -12 2 -22 1 -22 -2 0 -2 35 -29 79 -59 94
-67 144 -123 170 -191 24 -66 36 -136 23 -136 -29 0 -116 140 -143 228 -12 40
-48 82 -72 82 -12 0 -2 -66 21 -135 47 -139 156 -263 286 -325 45 -21 95 -42
111 -46 17 -4 44 -16 60 -26 39 -23 91 -23 146 1 24 10 62 22 84 26 23 3 71
21 107 38 l66 32 5 -590 c5 -623 9 -694 58 -940 20 -98 23 -148 25 -451 l3
-342 -36 -4 c-26 -3 -44 2 -67 19 -27 20 -73 44 -143 76 -15 7 -26 7 -35 0 -7
-6 -40 -18 -73 -28 -33 -9 -76 -25 -97 -36 -36 -19 -111 -19 -3408 -19 -3297
0 -3372 0 -3408 19 -21 11 -64 27 -97 36 -33 10 -66 22 -73 28 -9 7 -20 7 -35
0 -12 -6 -41 -19 -64 -28 -23 -10 -50 -26 -59 -36 -12 -14 -31 -19 -66 -19
l-48 0 0 268 c0 190 6 325 20 468 10 111 21 269 24 350 l5 149 -14 -185 c-7
-102 -14 -198 -14 -215 -1 -23 -4 -27 -11 -15 -6 9 -10 307 -10 790 0 483 4
781 10 790 7 12 10 8 11 -15 0 -16 7 -113 14 -215 l14 -185 -5 155 c-5 148
-11 230 -34 440 -5 52 -10 196 -10 320 l0 225 43 -1 c32 -1 55 -10 87 -33z
m7574 -737 c9 -23 6 -1565 -3 -1588 -9 -24 -48 262 -61 449 -6 77 -10 357 -10
623 l0 483 25 24 c28 29 40 31 49 9z"/>
<path d="M7290 3393 c0 -12 3 -14 8 -7 4 7 18 14 32 17 21 4 20 4 -7 6 -25 1
-33 -3 -33 -16z"/>
<path d="M7510 3401 c0 -6 5 -13 10 -16 6 -3 10 -2 10 4 0 5 12 12 28 14 22 3
20 4 -10 6 -21 0 -38 -3 -38 -8z"/>
<path d="M7620 3395 c0 -8 5 -15 10 -15 6 0 10 7 10 15 0 8 -4 15 -10 15 -5 0
-10 -7 -10 -15z"/>
<path d="M7461 3150 c-24 -11 -41 -23 -38 -26 8 -8 97 26 97 37 0 13 -10 11
-59 -11z"/>
<path d="M2775 2881 l-470 -6 255 -9 c487 -16 3046 -8 3028 10 -7 6 -2358 10
-2813 5z"/>
<path d="M174 1820 c0 -282 1 -328 6 -200 4 90 4 254 0 365 -6 174 -6 153 -6
-165z"/>
</g>
</g></svg>