<svg xmlns="http://www.w3.org/2000/svg" viewBox="0 0 804 208"><g id="geometry"><g transform="translate(0.000000,208.000000) scale(0.100000,-0.100000)"
fill="#f1f1f1" stroke="none">
<path d="M7294 2031 c-74 -12 -144 -37 -198 -72 -26 -16 -52 -26 -58 -23 -6 4
-8 3 -5 -3 4 -6 -16 -30 -44 -53 l-51 -43 21 40 c11 22 32 54 46 71 14 17 21
33 16 36 -13 8 -76 -65 -106 -124 l-25 -50 -3171 0 c-3088 0 -3171 0 -3207
-19 -63 -32 -136 -50 -156 -39 -12 7 -26 7 -41 0 -26 -12 -101 17 -111 43 -5
12 -23 15 -85 15 l-79 0 0 -860 0 -860 25 -1 c122 -3 124 -3 156 29 35 34 72
47 96 33 10 -5 26 -5 40 0 25 9 124 -18 167 -46 19 -13 469 -15 3404 -15
l3382 0 48 24 c66 33 128 49 149 37 10 -5 26 -5 40 0 31 11 83 -10 105 -42 14
-23 21 -24 89 -23 l74 2 3 477 2 476 37 57 c60 94 91 165 104 236 9 55 9 70
-2 76 -9 6 -2 14 24 26 40 19 47 49 12 49 -17 0 -22 11 -32 63 -14 76 -43 153
-53 147 -5 -3 -11 17 -15 45 -9 66 -64 177 -109 219 -37 36 -63 37 -32 2 10
-11 15 -25 11 -31 -3 -6 -1 -9 5 -8 6 2 23 -17 38 -42 l26 -45 -49 45 -50 45
-3 -58 c-3 -55 -1 -60 38 -104 22 -26 38 -53 35 -60 -2 -8 0 -11 5 -8 13 8 40
-60 40 -102 0 -71 -40 -235 -64 -264 -13 -15 -27 -25 -31 -21 -5 4 -5 2 -2 -5
4 -6 -4 -34 -17 -63 -14 -31 -26 -46 -30 -38 -3 7 -3 3 0 -9 3 -13 2 -28 -2
-35 -4 -7 -7 -31 -5 -54 2 -37 -1 -45 -31 -68 -32 -24 -76 -45 -125 -60 -18
-6 -22 -3 -25 21 -2 20 -9 29 -25 31 -21 3 -22 1 -12 -28 18 -50 -25 -122 -77
-132 -24 -4 -32 -38 -9 -38 9 0 29 7 46 15 16 9 60 25 97 37 37 11 88 31 115
44 l47 24 0 -406 0 -406 -29 24 c-15 14 -44 30 -62 37 -19 7 -42 17 -51 22
-22 11 -55 12 -62 0 -3 -5 -23 -12 -43 -16 -20 -4 -66 -20 -101 -36 l-65 -29
-3359 0 -3359 0 -48 25 c-27 13 -70 29 -97 36 -27 6 -53 16 -58 20 -13 11 -49
12 -62 1 -5 -5 -30 -16 -55 -26 -26 -9 -55 -26 -64 -36 -10 -11 -21 -20 -25
-20 -4 0 -10 129 -13 288 -4 158 -17 404 -28 547 -12 143 -24 378 -26 523 l-5
262 39 0 c27 0 46 -6 58 -20 9 -10 38 -27 64 -36 25 -10 50 -21 55 -26 13 -11
50 -10 62 1 5 5 36 16 69 26 33 9 76 25 97 36 36 19 108 19 3191 19 l3154 0
-5 -27 c-3 -16 -12 -33 -19 -38 -17 -13 -53 -136 -53 -181 0 -25 -4 -30 -21
-30 -36 2 -32 -21 8 -48 21 -14 32 -26 25 -26 -26 0 -11 -97 30 -192 l20 -48
53 0 53 0 -28 53 c-16 28 -33 72 -39 97 l-9 45 39 -45 c43 -48 79 -110 79
-135 0 -9 9 -15 25 -15 23 0 25 3 19 28 -4 15 -17 45 -30 68 -13 22 -23 43
-21 45 1 2 0 3 -2 2 -8 -5 -34 40 -43 76 -34 132 -48 214 -41 241 5 17 8 19
15 8 8 -10 9 -9 4 4 -5 18 23 78 37 78 4 0 7 6 7 14 0 8 5 18 12 22 7 5 8 3 3
-6 -5 -9 -4 -11 4 -6 6 4 9 12 6 17 -7 11 86 99 97 93 5 -3 8 -11 8 -17 0 -8
-3 -8 -9 1 -6 11 -10 11 -19 0 -8 -10 -5 -13 15 -14 22 -2 24 1 18 23 -5 21
-3 24 10 19 9 -3 14 -2 11 2 -3 5 8 16 25 26 16 9 29 21 29 27 0 5 12 9 26 9
15 0 55 5 90 12 49 9 85 9 161 -1 54 -7 132 -11 173 -9 l75 3 -45 27 c-99 58
-257 87 -376 69z m575 -701 c-5 -16 -13 -44 -18 -60 -14 -44 -67 -133 -92
-156 -14 -11 -19 -13 -13 -4 4 8 7 22 6 31 -5 31 39 127 79 173 22 25 42 46
44 46 2 0 -1 -13 -6 -30z m-89 -765 l0 -435 -25 0 -25 0 0 425 c0 393 1 425
18 434 9 6 20 11 25 11 4 0 7 -196 7 -435z m-7661 -217 c1 -179 -1 -208 -14
-208 -13 0 -15 52 -13 418 l1 417 13 -210 c7 -116 13 -303 13 -417z"/>
<path d="M7147 1765 c1 -35 4 -68 6 -72 7 -11 177 -4 177 8 0 5 -13 9 -30 9
-23 0 -30 4 -30 20 0 15 7 20 25 20 14 0 25 5 25 10 0 6 -18 10 -40 10 -39 0
-40 -1 -41 -37 0 -21 -3 -33 -5 -27 -3 6 -16 9 -29 6 -24 -4 -25 -3 -25 57 0
51 -3 61 -17 61 -16 0 -18 -9 -16 -65z"/>
<path d="M7350 1765 c0 -3 7 -21 14 -40 12 -28 20 -34 39 -33 14 1 23 7 20 13
-2 7 1 24 6 38 9 24 8 27 -9 27 -12 0 -20 -7 -20 -17 -1 -17 -1 -17 -11 0 -9
15 -39 25 -39 12z"/>
<path d="M7468 1731 l-3 -39 50 -4 c73 -4 145 2 145 13 0 5 -11 9 -25 9 -21 0
-25 5 -25 30 0 23 -4 30 -20 30 -17 0 -20 -7 -20 -42 0 -33 -3 -39 -12 -30 -7
7 -22 12 -34 12 -17 0 -22 6 -21 20 1 14 8 20 24 20 12 0 25 5 28 10 4 6 -11
10 -38 10 -45 0 -45 0 -49 -39z"/>
<path d="M7760 1730 c0 -5 5 -10 10 -10 6 0 10 5 10 10 0 6 -4 10 -10 10 -5 0
-10 -4 -10 -10z"/>
<path d="M7776 1655 c4 -8 8 -15 10 -15 2 0 4 7 4 15 0 8 -4 15 -10 15 -5 0
-7 -7 -4 -15z"/>
<path d="M2749 1327 c-3 -4 -251 -7 -552 -7 -496 -1 -634 -7 -514 -23 151 -21
4482 -15 4503 6 4 4 5 9 2 12 -7 8 -3432 19 -3439 12z"/>
<path d="M7030 1280 c0 -5 5 -10 10 -10 6 0 10 5 10 10 0 6 -4 10 -10 10 -5 0
-10 -4 -10 -10z"/>
</g>
<g transform="translate(0.000000,208.000000) scale(0.100000,-0.100000)"
fill="#e5e5e5" stroke="none">
<path d="M7335 2034 c-131 -16 -228 -57 -326 -138 -74 -61 -80 -50 -18 32 24
33 33 52 25 52 -21 0 -82 -75 -103 -126 l-18 -44 -3173 0 c-3091 0 -3174 0
-3210 -19 -63 -32 -136 -50 -157 -39 -13 8 -24 7 -37 -1 -15 -9 -28 -8 -63 8
-25 11 -48 27 -51 35 -5 13 -23 16 -85 16 l-79 0 0 -860 0 -860 80 0 c67 0 81
3 89 19 17 31 70 49 141 46 62 -3 173 -36 185 -56 4 -5 1301 -9 3389 -9 l3384
0 66 31 c108 50 243 45 278 -10 11 -18 23 -21 90 -21 l78 0 0 475 0 475 40 63
c21 35 50 88 64 118 25 55 53 175 43 185 -3 3 -15 1 -26 -6 -41 -21 -20 -1 30
29 50 32 60 57 21 55 -17 0 -21 8 -27 45 -8 60 -45 172 -54 167 -4 -3 -13 23
-20 56 -15 73 -49 143 -92 193 -40 45 -72 49 -34 4 22 -27 65 -100 65 -112 0
-2 -21 16 -47 40 l-48 44 -3 -51 c-3 -47 0 -55 44 -113 66 -88 78 -119 71
-197 -8 -92 -36 -200 -62 -235 -50 -67 -85 -162 -85 -232 0 -41 -1 -43 -62
-77 -35 -19 -75 -38 -89 -41 -23 -6 -27 -3 -32 24 -5 22 -12 31 -27 31 -17 0
-18 -3 -9 -24 7 -14 9 -36 5 -49 -9 -36 -54 -87 -77 -87 -20 0 -37 -25 -25
-37 3 -4 27 3 54 15 26 11 74 28 107 37 32 9 81 28 107 41 l48 24 0 -406 0
-406 -30 25 c-16 14 -46 31 -67 37 -21 7 -42 16 -48 21 -12 12 -48 12 -60 0
-6 -5 -37 -16 -70 -26 -33 -9 -75 -25 -93 -36 -33 -19 -96 -19 -3396 -19
l-3363 0 -66 30 c-37 17 -74 30 -83 30 -9 0 -31 7 -50 16 -32 15 -36 15 -103
-10 -38 -15 -77 -36 -86 -46 -10 -11 -21 -20 -25 -20 -4 0 -10 125 -13 277 -6
264 -25 591 -47 807 -6 54 -10 197 -10 317 l0 219 38 0 c26 0 45 -7 56 -19 10
-11 32 -25 49 -31 18 -7 49 -19 70 -28 35 -14 40 -14 67 1 15 9 36 17 47 17
10 0 49 14 88 30 l69 30 3152 0 3151 0 -5 -27 c-2 -16 -10 -32 -16 -38 -18
-14 -45 -100 -53 -163 -5 -44 -9 -52 -23 -47 -11 3 -20 -1 -24 -10 -4 -11 9
-24 44 -46 48 -30 70 -50 31 -29 -11 5 -22 10 -25 10 -18 0 8 -130 40 -202 17
-37 18 -38 71 -38 l54 0 -21 30 c-21 30 -60 128 -60 152 0 20 60 -44 91 -97
16 -27 29 -58 29 -67 0 -13 8 -18 26 -18 22 0 24 3 18 23 -10 33 -33 77 -65
124 -16 23 -29 52 -29 65 0 13 -4 28 -10 34 -5 5 -17 53 -26 106 l-16 97 37
66 c44 79 118 160 136 149 8 -4 10 -3 5 4 -4 7 15 24 49 43 30 17 55 34 55 38
0 9 150 31 209 31 23 0 61 -5 84 -10 23 -6 85 -10 137 -8 l95 3 -61 32 c-96
50 -227 78 -319 67z m-468 -436 c-2 -18 -4 -6 -4 27 0 33 2 48 4 33 2 -15 2
-42 0 -60z m10 -120 c-3 -7 -5 -2 -5 12 0 14 2 19 5 13 2 -7 2 -19 0 -25z
m1005 -120 c-5 -7 -13 -29 -17 -48 -10 -48 -71 -162 -101 -191 l-26 -24 7 30
c21 95 40 137 87 189 27 31 52 56 55 56 3 0 1 -6 -5 -12z m-102 -792 c0 -431
0 -435 -21 -441 -11 -4 -22 -5 -25 -3 -2 2 -4 195 -4 428 -1 392 0 426 16 437
10 7 21 13 26 13 4 0 8 -195 8 -434z m-7670 168 c6 -117 13 -298 16 -403 5
-188 5 -191 -15 -191 -21 0 -21 2 -20 418 1 229 3 410 5 402 1 -8 8 -110 14
-226z"/>
<path d="M7150 1760 l0 -70 40 0 c22 0 40 5 40 10 0 6 -11 10 -25 10 -24 0
-25 3 -25 60 0 47 -3 60 -15 60 -12 0 -15 -14 -15 -70z"/>
<path d="M7240 1730 l0 -40 46 0 c27 0 43 4 39 10 -3 6 -17 10 -31 10 -17 0
-24 5 -24 20 0 15 7 20 25 20 14 0 25 5 25 10 0 6 -18 10 -40 10 l-40 0 0 -40z"/>
<path d="M7350 1765 c0 -3 7 -22 15 -41 19 -45 44 -42 61 9 11 31 11 37 -1 37
-7 0 -17 -10 -21 -22 l-7 -23 -8 23 c-7 19 -39 33 -39 17z"/>
<path d="M7470 1730 l0 -40 46 0 c27 0 43 4 39 10 -3 6 -17 10 -31 10 -17 0
-24 5 -24 20 0 15 7 20 25 20 14 0 25 5 25 10 0 6 -18 10 -40 10 l-40 0 0 -40z"/>
<path d="M7570 1730 l0 -40 46 0 c27 0 43 4 39 10 -3 6 -15 10 -26 10 -14 0
-19 7 -19 30 0 23 -4 30 -20 30 -17 0 -20 -7 -20 -40z"/>
<path d="M2819 1327 c-3 -4 -250 -7 -550 -7 -519 -1 -698 -10 -462 -23 355
-21 4298 -15 4319 6 4 4 5 9 2 12 -7 7 -3302 19 -3309 12z"/>
</g>
<g transform="translate(0.000000,208.000000) scale(0.100000,-0.100000)"
fill="#dcdcdc" stroke="none">
<path d="M7233 2015 c-29 -8 -76 -26 -105 -41 -62 -31 -173 -117 -182 -140 -4
-9 -9 -14 -12 -11 -8 7 30 78 62 116 14 18 23 35 19 39 -11 11 -83 -77 -102
-125 l-18 -43 -3171 0 -3170 0 -50 -24 c-71 -34 -123 -47 -145 -36 -12 7 -26
6 -42 -1 -20 -9 -32 -7 -66 11 -23 11 -44 27 -48 35 -4 11 -24 15 -84 15 l-79
0 0 -860 0 -860 79 0 c59 0 80 4 84 14 26 67 222 68 324 1 20 -13 429 -15
3406 -15 2068 0 3387 4 3392 9 24 24 125 53 190 56 74 3 106 -7 139 -44 16
-18 31 -21 93 -21 l73 0 0 479 0 479 36 52 c53 76 90 162 104 236 7 36 10 67
7 70 -3 3 -15 1 -26 -6 -40 -21 -20 -1 24 26 30 17 45 32 43 43 -2 9 -11 15
-20 13 -12 -2 -18 8 -23 40 -3 24 -16 75 -28 113 l-22 70 -6 -65 -6 -65 -1 70
c-3 125 -48 249 -113 311 -42 41 -45 23 -6 -33 19 -26 38 -59 41 -73 7 -25 7
-25 -11 -5 -10 11 -33 33 -50 49 l-33 30 0 -55 c0 -47 5 -59 34 -93 19 -21 47
-61 62 -89 24 -45 26 -57 21 -122 -7 -97 -35 -204 -62 -240 -48 -65 -73 -128
-81 -210 -3 -27 -7 -55 -9 -61 -4 -13 -140 -84 -160 -84 -7 0 -15 14 -18 30
-5 22 -12 30 -27 30 -18 0 -19 -3 -9 -21 24 -46 -19 -126 -78 -144 -13 -3 -23
-12 -23 -20 0 -14 35 -8 76 12 10 6 41 15 68 22 26 7 77 25 112 41 l64 29 0
-405 0 -404 -41 30 c-23 16 -57 32 -75 36 -19 3 -34 10 -34 15 0 12 -47 12
-54 0 -3 -5 -26 -14 -52 -20 -25 -7 -73 -25 -105 -41 l-58 -30 -3352 0 -3352
0 -41 24 c-23 13 -68 32 -101 41 -33 10 -67 23 -77 28 -12 8 -23 8 -40 0 -13
-6 -38 -16 -56 -22 -18 -6 -50 -24 -71 -40 l-38 -30 -6 272 c-6 258 -26 605
-47 821 -6 54 -10 197 -10 317 l0 219 36 0 c22 0 48 -9 67 -24 18 -13 43 -27
57 -31 14 -4 40 -14 58 -23 31 -14 36 -14 62 1 15 10 36 17 47 17 10 0 49 14
88 30 l69 30 3153 0 3153 0 -7 -32 c-3 -18 -13 -38 -20 -43 -17 -12 -53 -136
-53 -178 0 -21 -4 -28 -14 -24 -8 3 -20 0 -26 -8 -9 -11 -2 -20 39 -45 49 -31
71 -52 32 -30 -11 5 -22 10 -25 10 -20 0 9 -132 45 -202 18 -36 22 -38 65 -38
25 0 44 3 42 8 -32 63 -58 124 -63 152 l-7 35 37 -35 c37 -35 85 -117 85 -145
0 -9 9 -15 24 -15 22 0 24 3 16 29 -10 36 -25 64 -62 119 -16 23 -31 52 -33
64 -3 11 -9 35 -14 52 -5 17 -15 66 -21 108 -11 73 -10 79 14 125 40 80 103
152 169 193 34 21 69 45 78 52 23 21 176 42 245 34 32 -4 111 -9 174 -12 l115
-5 -40 26 c-82 52 -142 68 -270 71 -84 3 -136 -1 -172 -11z m-366 -427 c-2
-18 -4 -4 -4 32 0 36 2 50 4 33 2 -18 2 -48 0 -65z m10 -105 c-3 -10 -5 -4 -5
12 0 17 2 24 5 18 2 -7 2 -21 0 -30z m1020 -5 c-3 -7 -5 -2 -5 12 0 14 2 19 5
13 2 -7 2 -19 0 -25z m-1010 -50 c-3 -7 -5 -2 -5 12 0 14 2 19 5 13 2 -7 2
-19 0 -25z m1006 -60 c-11 -13 -23 -38 -26 -56 -10 -48 -56 -138 -94 -180
l-34 -37 6 35 c16 87 38 132 97 196 33 35 63 64 66 64 3 0 -4 -10 -15 -22z
m-7771 -988 c3 -226 2 -245 -14 -248 -17 -3 -18 22 -17 435 l2 438 13 -190 c7
-104 15 -300 16 -435z m7658 179 l0 -440 -27 3 -28 3 -3 419 c-2 379 -1 421
14 438 44 47 44 43 44 -423z"/>
<path d="M7150 1760 l0 -70 41 0 c24 0 38 4 34 10 -3 6 -15 10 -26 10 -17 0
-19 7 -19 60 0 47 -3 60 -15 60 -12 0 -15 -14 -15 -70z"/>
<path d="M7240 1730 l0 -40 46 0 c27 0 43 4 39 10 -3 6 -17 10 -31 10 -17 0
-24 5 -24 20 0 15 7 20 25 20 14 0 25 5 25 10 0 6 -18 10 -40 10 l-40 0 0 -40z"/>
<path d="M7365 1733 c9 -20 18 -39 20 -41 11 -11 32 9 42 42 9 29 8 36 -2 36
-8 0 -17 -10 -21 -22 l-7 -23 -10 23 c-6 12 -16 22 -24 22 -11 0 -10 -7 2 -37z"/>
<path d="M7470 1730 l0 -40 46 0 c27 0 43 4 39 10 -3 6 -17 10 -31 10 -17 0
-24 5 -24 20 0 15 7 20 25 20 14 0 25 5 25 10 0 6 -18 10 -40 10 l-40 0 0 -40z"/>
<path d="M7572 1733 c3 -38 4 -38 48 -40 42 -1 43 -1 18 10 -21 8 -28 18 -28
39 0 22 -5 28 -21 28 -17 0 -20 -5 -17 -37z"/>
<path d="M2899 1327 c-3 -4 -255 -8 -560 -9 -305 -1 -574 -4 -599 -8 -115 -16
633 -24 2175 -24 1443 0 2225 7 2213 20 -2 1 -33 5 -68 8 -95 8 -3154 20
-3161 13z"/>
</g>
<g transform="translate(0.000000,208.000000) scale(0.100000,-0.100000)"
fill="#888888" stroke="none">
<path d="M7260 2014 c-91 -19 -195 -73 -268 -139 -34 -31 -62 -52 -62 -45 0
15 28 68 58 110 l26 35 -36 -33 c-19 -18 -46 -55 -58 -83 l-23 -49 -3169 0
c-2867 0 -3171 -1 -3193 -16 -13 -8 -54 -26 -91 -39 -51 -18 -72 -21 -89 -13
-15 7 -29 7 -41 0 -24 -13 -70 5 -103 42 -22 23 -32 26 -93 26 l-68 0 -1 -377
c0 -208 0 -585 0 -838 1 -253 1 -470 1 -482 0 -22 4 -23 68 -23 57 0 72 4 88
21 31 34 55 43 129 45 70 2 152 -20 200 -52 16 -12 571 -14 3391 -14 l3372 0
68 32 c112 53 263 46 295 -14 9 -16 20 -18 82 -16 l72 3 5 485 5 485 42 64
c47 70 77 142 91 219 11 59 5 63 -44 33 -22 -14 -33 -29 -37 -55 -12 -74 -121
-255 -142 -235 -7 8 21 123 40 159 25 48 96 119 165 165 72 48 87 69 48 63
-20 -3 -23 2 -29 49 -4 28 -15 78 -25 110 l-19 58 -6 -110 c-7 -124 -16 -175
-31 -175 -6 0 -7 7 -4 16 3 9 11 58 18 110 20 169 -20 332 -103 409 l-32 30
36 -55 c19 -30 38 -66 42 -80 7 -21 0 -17 -46 25 l-54 50 -3 -48 c-3 -42 0
-51 32 -85 20 -20 50 -63 67 -96 29 -54 31 -63 25 -125 -10 -103 -40 -203 -74
-250 -40 -55 -69 -133 -77 -208 l-7 -60 -78 -42 c-94 -50 -108 -51 -112 -9 -2
17 -8 33 -14 35 -8 3 -10 -10 -7 -39 5 -55 -22 -101 -71 -119 -36 -13 -48 -29
-22 -29 7 0 33 9 57 19 24 11 60 22 80 26 20 4 66 21 103 39 l66 32 0 -414 0
-414 -35 30 c-19 17 -50 34 -70 38 -19 3 -38 10 -41 15 -7 11 -47 12 -59 0 -6
-4 -32 -14 -59 -20 -27 -7 -70 -23 -97 -36 l-48 -25 -3361 0 -3361 0 -48 25
c-27 13 -70 29 -97 36 -27 6 -53 16 -58 20 -13 12 -53 12 -60 0 -3 -4 -20 -11
-38 -15 -18 -4 -49 -20 -70 -36 -20 -17 -39 -30 -41 -30 -2 0 -7 114 -11 253
-7 256 -28 632 -46 811 -6 54 -10 206 -10 337 l0 239 32 0 c18 0 48 -11 71
-27 21 -14 63 -37 94 -49 48 -20 58 -21 77 -9 11 7 37 16 56 20 19 4 64 20 99
36 l64 29 3149 0 3150 0 -7 -82 c-6 -74 6 -223 22 -264 3 -8 1 -14 -5 -14 -14
0 -21 40 -28 163 -4 59 -11 104 -15 100 -8 -8 -33 -101 -43 -164 -5 -31 -10
-36 -26 -32 -41 11 -18 -18 54 -66 88 -59 149 -128 173 -193 9 -27 23 -48 30
-48 26 0 9 49 -47 135 -41 63 -64 143 -76 258 -6 60 -4 69 27 128 41 76 117
154 190 193 30 16 56 33 59 36 16 23 232 36 320 20 36 -6 94 -10 130 -8 l65 3
-69 34 c-123 58 -246 73 -376 45z m-7141 -1315 c6 -108 11 -280 11 -383 0
-179 -1 -186 -20 -186 -20 0 -20 7 -20 300 -1 496 -1 559 1 583 3 41 17 -117
28 -314z m7661 -134 l0 -445 -30 0 -30 0 0 429 0 430 22 15 c12 9 26 16 30 16
5 0 8 -200 8 -445z"/>
<path d="M7152 1763 l3 -68 40 -2 c23 0 29 1 15 4 -34 7 -41 20 -38 77 1 33
-2 51 -10 54 -10 3 -12 -13 -10 -65z"/>
<path d="M7242 1733 c3 -37 4 -38 43 -39 24 -1 29 0 13 3 -22 3 -28 10 -28 29
0 18 5 24 21 24 11 0 17 5 14 10 -3 6 -20 10 -36 10 -29 0 -30 -2 -27 -37z"/>
<path d="M7364 1754 c3 -9 9 -27 12 -40 9 -35 31 -29 44 12 15 43 5 58 -11 18
l-12 -29 -10 28 c-6 15 -15 27 -20 27 -5 0 -6 -7 -3 -16z"/>
<path d="M7470 1730 l0 -40 43 1 c38 1 39 2 12 8 -22 4 -30 12 -31 29 -1 17 4
22 23 22 14 0 21 4 18 10 -3 6 -19 10 -36 10 -27 0 -29 -2 -29 -40z"/>
<path d="M7580 1730 c0 -40 0 -40 38 -39 30 2 32 3 10 6 -24 4 -28 9 -28 39 0
19 -4 34 -10 34 -5 0 -10 -18 -10 -40z"/>
<path d="M6810 1373 c0 -37 23 -119 46 -165 16 -35 21 -38 59 -38 l42 0 -28
56 c-16 31 -31 71 -35 90 -6 32 -52 84 -75 84 -5 0 -9 -12 -9 -27z"/>
<path d="M2710 1320 c-349 -4 -651 -9 -670 -11 -123 -13 2670 -20 3440 -9
l345 5 -195 7 c-291 12 -2193 17 -2920 8z"/>
</g>
<g transform="translate(0.000000,208.000000) scale(0.100000,-0.100000)"
fill="#292929" stroke="none">
<path d="M7238 2004 c-87 -20 -170 -67 -243 -135 -36 -34 -68 -59 -71 -57 -6
6 12 49 44 103 l23 40 -26 -30 c-14 -16 -35 -51 -47 -77 l-22 -48 -3167 0
-3167 0 -54 -24 c-80 -36 -135 -49 -156 -37 -11 6 -24 6 -35 -1 -24 -13 -82 7
-106 38 -17 21 -27 24 -90 24 l-71 0 0 -855 0 -855 70 0 c58 0 71 3 79 19 6
10 31 29 56 41 37 18 48 20 61 10 11 -10 21 -10 39 -2 26 12 92 -5 173 -47
l41 -21 3361 0 c3300 0 3361 0 3399 19 20 11 65 29 99 40 50 17 66 19 81 9 15
-9 23 -9 35 1 12 10 23 9 60 -7 25 -11 51 -30 58 -41 11 -18 23 -21 80 -21
l68 0 0 480 0 479 49 73 c53 79 85 157 96 231 14 90 -49 39 -89 -73 -24 -68
-101 -190 -126 -198 -16 -6 -12 41 10 110 27 87 80 151 190 226 58 39 72 59
40 54 -16 -3 -20 3 -20 25 0 33 -27 145 -38 155 -4 4 -8 -17 -9 -45 -3 -85
-13 -172 -23 -187 -17 -28 -21 -2 -10 58 19 93 8 274 -19 344 -12 31 -31 67
-42 80 -16 19 -15 13 6 -30 15 -30 24 -57 20 -60 -3 -3 -30 19 -60 48 l-55 54
0 -44 c0 -35 6 -50 29 -75 16 -16 46 -57 65 -89 30 -50 36 -69 36 -118 0 -85
-35 -226 -69 -273 -47 -66 -63 -104 -80 -194 l-17 -85 -69 -37 c-100 -53 -115
-56 -115 -25 0 13 -3 31 -6 40 -12 31 -19 15 -16 -34 4 -46 1 -53 -31 -85 -19
-19 -44 -35 -56 -35 -12 0 -21 -4 -21 -10 0 -15 19 -12 64 9 23 10 64 24 91
31 28 7 76 26 108 42 l57 28 0 -415 c0 -228 -2 -415 -3 -415 -2 0 -17 11 -33
25 -16 14 -45 30 -64 36 -19 6 -45 15 -57 21 -15 7 -26 8 -35 1 -7 -6 -35 -15
-62 -22 -27 -7 -70 -23 -97 -36 l-48 -25 -3373 0 c-2885 0 -3376 2 -3394 14
-36 25 -205 78 -217 68 -7 -5 -26 -13 -44 -17 -18 -3 -49 -20 -69 -36 -41 -32
-50 -35 -58 -16 -5 10 -7 10 -12 0 -3 -7 -17 -13 -30 -13 l-24 0 0 438 c1 241
4 452 9 468 8 30 10 16 31 -294 8 -110 8 -108 4 38 -3 85 -12 225 -20 310 -9
85 -18 273 -21 418 l-5 262 46 0 c34 0 51 -6 72 -25 15 -14 45 -30 68 -37 23
-6 47 -16 54 -21 8 -7 20 -6 35 0 12 6 42 16 67 23 25 7 66 23 92 36 l47 24
3163 0 3163 0 0 -137 c0 -76 3 -158 8 -181 6 -33 5 -43 -5 -40 -17 6 -27 57
-30 165 -1 51 -5 90 -9 85 -10 -11 -39 -134 -39 -166 0 -21 -4 -27 -20 -24
-34 5 -22 -12 34 -50 106 -71 170 -146 199 -234 11 -31 26 -20 17 11 -10 36
-26 66 -61 116 -33 46 -68 188 -69 273 0 71 36 140 114 217 73 73 153 118 246
139 87 20 143 20 229 0 38 -8 97 -14 132 -12 l64 3 -52 28 c-105 55 -277 72
-405 41z m552 -1446 l0 -438 -35 0 -35 0 0 435 0 434 27 15 c21 10 30 11 35 3
4 -7 8 -209 8 -449z"/>
<path d="M7162 1758 l-2 -68 33 1 c29 2 30 2 5 6 -26 4 -27 8 -31 66 l-3 62
-2 -67z"/>
<path d="M7250 1731 c0 -40 1 -41 33 -40 31 2 31 2 3 6 -25 4 -28 8 -24 34 3
17 1 32 -4 35 -4 3 -8 -13 -8 -35z"/>
<path d="M7372 1738 c17 -52 26 -55 43 -14 9 21 14 40 12 43 -3 2 -10 -11 -17
-29 l-12 -33 -14 33 c-8 17 -16 32 -19 32 -2 0 1 -15 7 -32z"/>
<path d="M7480 1731 c0 -40 1 -41 33 -40 31 2 31 2 3 6 -25 4 -28 8 -24 34 3
17 1 32 -4 35 -4 3 -8 -13 -8 -35z"/>
<path d="M7582 1733 c3 -34 6 -38 33 -40 20 -1 23 0 8 4 -19 3 -23 11 -23 39
0 19 -5 34 -11 34 -6 0 -9 -16 -7 -37z"/>
<path d="M6810 1383 c1 -29 18 -97 41 -157 20 -55 21 -56 60 -56 40 0 48 7 27
28 -6 6 -23 46 -37 89 -22 63 -33 81 -59 96 -31 18 -32 18 -32 0z"/>
<path d="M2485 1310 c-202 -4 -58 -7 577 -14 465 -4 1230 -4 1700 0 736 8 810
10 543 15 -366 7 -2432 7 -2820 -1z"/>
<path d="M132 398 c3 -125 8 -231 11 -235 8 -7 -3 449 -10 457 -3 3 -3 -97 -1
-222z"/>
</g>
</g></svg>