<svg xmlns="http://www.w3.org/2000/svg" viewBox="0 0 805 300"><g id="geometry"><g transform="translate(0.000000,300.000000) scale(0.100000,-0.100000)"
fill="#f4f0ed" stroke="none">
<path d="M130 1500 l0 -1500 38 0 37 0 3 1500 3 1500 -40 0 -41 0 0 -1500z"/>
<path d="M230 1500 c0 -1327 2 -1500 15 -1500 13 0 15 173 15 1500 0 1327 -2
1500 -15 1500 -13 0 -15 -173 -15 -1500z"/>
<path d="M1735 2994 c-121 -2 -478 -5 -794 -6 -410 -2 -575 -6 -578 -14 -5
-16 2997 -28 5234 -20 1804 6 2018 9 2007 27 -3 6 -29 9 -57 8 -29 0 -1298 1
-2822 3 -1523 3 -2869 3 -2990 2z"/>
<path d="M7821 1500 c-3 -1379 -2 -1500 13 -1500 15 0 16 123 16 1500 0 1193
-3 1500 -12 1500 -10 0 -14 -309 -17 -1500z"/>
<path d="M7870 1500 l0 -1500 34 0 34 0 5 112 c3 62 4 421 2 798 -2 377 -4
1001 -5 1388 l0 702 -35 0 -35 0 0 -1500z"/>
<path d="M6429 2871 c-22 -22 -39 -49 -40 -62 0 -13 -2 -35 -4 -49 -1 -14 4
-35 11 -48 8 -12 12 -28 8 -34 -4 -7 -3 -8 5 -4 6 4 14 1 17 -7 5 -15 6 -15
80 -23 72 -8 96 6 92 54 -2 20 -7 36 -13 35 -5 -2 -10 -8 -10 -15 0 -21 -44
-37 -77 -27 -41 11 -57 36 -58 85 0 48 23 75 71 80 39 5 90 -23 68 -37 -11 -7
-11 -9 -1 -9 13 0 16 6 26 52 5 22 2 28 -26 37 -17 6 -49 11 -71 11 -32 0 -46
-7 -78 -39z"/>
<path d="M6471 2831 c-9 -6 -10 -11 -2 -15 6 -4 11 -2 11 4 0 6 5 8 12 4 7 -4
8 -3 4 4 -8 14 -7 14 -25 3z"/>
<path d="M6453 2610 c-43 -26 -62 -57 -66 -108 -3 -24 -7 -45 -11 -49 -10 -10
-7 -25 4 -18 5 3 17 -6 26 -20 24 -36 65 -55 122 -55 57 0 72 12 72 59 0 30
-2 33 -12 18 -23 -29 -65 -39 -103 -23 -35 15 -50 43 -46 90 2 39 16 54 59 66
30 8 42 6 69 -10 l33 -19 0 33 c0 25 -6 35 -25 44 -38 18 -86 14 -122 -8z"/>
<path d="M6460 2541 c0 -6 5 -13 10 -16 6 -3 10 1 10 9 0 9 -4 16 -10 16 -5 0
-10 -4 -10 -9z"/>
<path d="M1127 2461 c-3 -11 -3 -21 -2 -23 2 -2 1179 -1 2617 2 2478 5 2613 6
2616 23 3 16 -126 17 -2611 17 -2580 0 -2615 0 -2620 -19z"/>
<path d="M6453 2330 c-42 -25 -60 -55 -68 -110 -5 -39 -2 -51 22 -85 31 -44
37 -47 104 -53 65 -5 89 9 89 55 0 32 -2 34 -12 20 -35 -45 -121 -37 -142 14
-21 50 -7 91 39 113 38 19 39 19 77 -1 l38 -21 0 32 c0 25 -6 35 -25 44 -38
18 -86 14 -122 -8z"/>
<path d="M6460 2261 c0 -5 5 -13 10 -16 6 -3 10 -2 10 4 0 5 -4 13 -10 16 -5
3 -10 2 -10 -4z"/>
<path d="M3420 30 c0 -5 7 -10 15 -10 8 0 15 5 15 10 0 6 -7 10 -15 10 -8 0
-15 -4 -15 -10z"/>
<path d="M5285 30 c-3 -5 3 -10 15 -10 12 0 18 5 15 10 -3 6 -10 10 -15 10 -5
0 -12 -4 -15 -10z"/>
<path d="M2540 20 c19 -13 30 -13 30 0 0 6 -10 10 -22 10 -19 0 -20 -2 -8 -10z"/>
</g>
<g transform="translate(0.000000,300.000000) scale(0.100000,-0.100000)"
fill="#ded6d3" stroke="none">
<path d="M139 2178 c-1 -453 -3 -1086 -4 -1408 -1 -322 0 -627 2 -677 l5 -93
29 0 28 0 3 117 c2 65 2 740 0 1501 l-2 1382 -30 0 -30 0 -1 -822z"/>
<path d="M230 1500 c0 -1327 2 -1500 15 -1500 13 0 15 173 15 1500 0 1327 -2
1500 -15 1500 -13 0 -15 -173 -15 -1500z"/>
<path d="M1253 2991 c-479 -3 -874 -9 -877 -12 -13 -13 247 -18 1079 -21 1480
-5 5712 1 5895 9 175 7 175 7 80 14 -136 9 -5135 18 -6177 10z"/>
<path d="M7821 1500 c-3 -1379 -2 -1500 13 -1500 15 0 16 123 16 1500 0 1193
-3 1500 -12 1500 -10 0 -14 -309 -17 -1500z"/>
<path d="M7870 1500 l0 -1500 34 0 35 0 3 108 c2 59 2 734 0 1500 l-2 1392
-35 0 -35 0 0 -1500z"/>
<path d="M6448 2885 c-48 -32 -58 -52 -58 -112 0 -83 48 -132 128 -133 58 0
82 14 82 49 l0 28 -40 -19 c-39 -19 -40 -19 -77 -1 -28 13 -39 27 -46 52 -10
40 6 86 26 75 6 -4 9 -4 5 1 -14 15 14 35 47 35 18 0 44 -9 58 -20 l25 -20 4
31 c4 25 0 33 -23 45 -42 21 -90 17 -131 -11z"/>
<path d="M6462 2613 c-52 -25 -72 -58 -72 -117 0 -86 46 -135 128 -136 58 0
82 14 82 49 l0 28 -40 -19 c-39 -19 -40 -19 -77 -1 -27 13 -39 27 -45 50 -10
37 6 88 24 77 7 -4 8 -3 4 4 -8 14 24 32 57 32 13 0 36 -9 51 -21 l26 -20 0
34 c0 30 -4 37 -31 46 -43 15 -68 14 -107 -6z"/>
<path d="M1132 2463 c3 -17 137 -18 2611 -21 2602 -2 2607 -2 2607 18 0 20 -6
20 -2611 20 -2481 0 -2610 -1 -2607 -17z"/>
<path d="M6461 2333 c-44 -22 -71 -67 -71 -121 0 -80 51 -132 130 -132 58 0
80 14 80 52 0 31 0 31 -20 13 -48 -43 -133 -13 -145 51 -9 48 17 85 69 98 31
8 41 6 66 -13 l30 -22 0 35 c0 29 -4 36 -31 45 -43 15 -68 14 -108 -6z"/>
<path d="M3425 30 c-3 -5 1 -10 9 -10 9 0 16 5 16 10 0 6 -4 10 -9 10 -6 0
-13 -4 -16 -10z"/>
<path d="M5285 30 c-3 -5 1 -10 9 -10 9 0 16 5 16 10 0 6 -4 10 -9 10 -6 0
-13 -4 -16 -10z"/>
</g>
<g transform="translate(0.000000,300.000000) scale(0.100000,-0.100000)"
fill="#cdc5c2" stroke="none">
<path d="M138 1588 c-2 -777 -2 -1452 0 -1501 l3 -87 30 0 29 0 0 1500 0 1500
-30 0 -30 0 -2 -1412z"/>
<path d="M230 1500 c0 -1327 2 -1500 15 -1500 13 0 15 173 15 1500 0 1327 -2
1500 -15 1500 -13 0 -15 -173 -15 -1500z"/>
<path d="M1410 2990 c-481 -3 -877 -8 -880 -10 -24 -18 1332 -26 4070 -23
2015 2 2883 10 2665 24 -153 10 -4862 17 -5855 9z"/>
<path d="M7821 1500 c-3 -1379 -2 -1500 13 -1500 15 0 16 123 16 1500 0 1193
-3 1500 -12 1500 -10 0 -14 -309 -17 -1500z"/>
<path d="M7877 1683 c-4 -725 -4 -1400 0 -1501 l6 -182 29 0 28 0 0 1500 0
1500 -28 0 -29 0 -6 -1317z"/>
<path d="M6461 2893 c-46 -23 -71 -67 -71 -126 0 -40 5 -53 33 -83 26 -28 42
-37 77 -41 67 -7 100 9 100 48 0 30 -1 31 -17 17 -29 -26 -59 -30 -97 -14 -59
24 -75 98 -31 141 31 32 91 34 122 6 21 -20 21 -20 25 8 5 34 -13 48 -69 56
-25 4 -49 0 -72 -12z"/>
<path d="M6485 2623 c-60 -16 -95 -67 -95 -139 0 -41 5 -51 39 -85 34 -34 44
-39 85 -39 64 0 86 13 86 52 0 29 -1 30 -17 15 -61 -55 -153 -9 -153 77 0 12
13 34 28 49 34 33 79 35 116 6 l26 -20 0 29 c0 16 -6 34 -12 40 -16 13 -77 22
-103 15z"/>
<path d="M1135 2470 c-3 -5 -3 -14 0 -20 4 -7 885 -10 2611 -10 2597 0 2604 0
2604 20 0 20 -7 20 -2604 20 -1726 0 -2607 -3 -2611 -10z"/>
<path d="M6463 2331 c-50 -23 -73 -63 -73 -127 0 -41 5 -51 39 -85 32 -33 45
-39 79 -39 66 0 92 14 92 50 l0 31 -26 -20 c-56 -44 -131 -9 -141 65 -5 36 -2
43 27 67 38 32 78 35 114 6 l26 -20 0 31 c0 26 -6 33 -35 46 -44 18 -51 18
-102 -5z"/>
<path d="M3425 30 c-3 -5 1 -10 10 -10 9 0 13 5 10 10 -3 6 -8 10 -10 10 -2 0
-7 -4 -10 -10z"/>
<path d="M5285 30 c-3 -5 1 -10 10 -10 9 0 13 5 10 10 -3 6 -8 10 -10 10 -2 0
-7 -4 -10 -10z"/>
</g>
<g transform="translate(0.000000,300.000000) scale(0.100000,-0.100000)"
fill="#a49e9a" stroke="none">
<path d="M140 1500 l0 -1500 30 0 30 0 0 1500 0 1500 -30 0 -30 0 0 -1500z"/>
<path d="M230 1500 c0 -993 3 -1500 10 -1500 7 0 10 507 10 1500 0 993 -3
1500 -10 1500 -7 0 -10 -507 -10 -1500z"/>
<path d="M3009 2996 c-3 -3 -352 -6 -775 -7 -423 -1 -924 -4 -1114 -8 -290 -5
-184 -7 665 -15 1260 -10 2601 -10 4140 1 1101 7 1153 8 695 14 -746 10 -3604
21 -3611 15z"/>
<path d="M7830 1500 c0 -993 3 -1500 10 -1500 7 0 10 507 10 1500 0 993 -3
1500 -10 1500 -7 0 -10 -507 -10 -1500z"/>
<path d="M7880 1500 l0 -1500 30 0 30 0 0 1500 0 1500 -30 0 -30 0 0 -1500z"/>
<path d="M6434 2867 c-31 -28 -37 -41 -41 -83 -3 -37 1 -57 15 -80 49 -78 192
-83 192 -7 l0 24 -26 -20 c-36 -28 -76 -26 -114 5 -27 24 -31 32 -28 72 2 36
9 49 31 65 34 26 89 27 117 2 20 -18 20 -18 20 9 0 31 -29 46 -91 46 -31 0
-47 -7 -75 -33z"/>
<path d="M6453 2600 c-89 -54 -80 -187 14 -227 61 -25 133 -4 133 39 0 19 -1
19 -25 4 -65 -43 -145 0 -145 79 0 47 17 68 68 86 27 9 37 8 67 -10 l35 -20 0
25 c0 45 -89 60 -147 24z"/>
<path d="M1142 2463 c3 -17 135 -18 2603 -18 2468 0 2600 1 2603 18 3 16 -126
17 -2603 17 -2477 0 -2606 -1 -2603 -17z"/>
<path d="M6453 2320 c-87 -53 -80 -187 12 -226 65 -27 135 -10 135 33 0 23 -1
23 -22 9 -60 -42 -148 1 -148 71 0 48 16 72 57 89 32 14 38 13 74 -4 l39 -19
0 22 c0 44 -90 60 -147 25z"/>
</g>
<g transform="translate(0.000000,300.000000) scale(0.100000,-0.100000)"
fill="#292929" stroke="none">
<path d="M147 1660 c-4 -736 -4 -1411 0 -1500 5 -141 8 -160 23 -160 15 0 18
19 23 160 4 89 4 764 0 1500 -6 1243 -8 1340 -23 1340 -15 0 -17 -97 -23
-1340z"/>
<path d="M245 1500 c0 -828 1 -1166 2 -752 2 413 2 1091 0 1505 -1 413 -2 75
-2 -753z"/>
<path d="M7835 1500 c0 -828 1 -1166 2 -752 2 413 2 1091 0 1505 -1 413 -2 75
-2 -753z"/>
<path d="M7887 1683 c-4 -725 -4 -1400 0 -1501 6 -168 8 -182 25 -182 17 0 18
49 18 1500 0 1448 -1 1500 -18 1500 -18 0 -19 -49 -25 -1317z"/>
<path d="M2025 2980 c-589 -4 -504 -6 795 -12 800 -5 1509 -6 1575 -3 66 3
543 6 1060 7 l940 2 -880 7 c-965 7 -2460 7 -3490 -1z"/>
<path d="M6465 2882 c-61 -38 -86 -115 -56 -171 17 -31 70 -61 108 -61 40 0
83 19 83 36 0 11 -8 10 -35 -3 -101 -48 -193 77 -114 156 35 35 89 42 127 15
19 -13 22 -13 22 -1 0 41 -87 59 -135 29z"/>
<path d="M6486 2610 c-40 -12 -74 -47 -85 -87 -20 -73 40 -153 115 -153 41 0
84 19 84 37 0 11 -5 11 -30 -2 -53 -27 -105 -14 -133 35 -26 44 -22 84 14 119
35 35 89 42 127 15 20 -14 22 -14 22 1 0 9 -15 22 -35 31 -38 16 -39 16 -79 4z"/>
<path d="M1140 2460 c0 -7 875 -10 2606 -10 1734 0 2603 3 2599 10 -9 14
-5205 14 -5205 0z"/>
<path d="M6441 2304 c-90 -75 -32 -215 88 -214 37 1 71 19 71 39 0 14 -1 14
-40 -5 -97 -49 -187 78 -109 155 35 35 89 42 127 15 20 -13 22 -13 22 0 0 43
-112 50 -159 10z"/>
</g>
</g></svg>