<svg xmlns="http://www.w3.org/2000/svg" viewBox="0 0 638 212"><g id="geometry"><g transform="translate(0.000000,212.000000) scale(0.100000,-0.100000)"
fill="#f3f3f3" stroke="none">
<path d="M6025 2090 c-11 -5 -1325 -9 -2920 -10 l-2900 -1 -17 -37 c-16 -35
-33 -49 -125 -103 l-33 -18 0 -638 c0 -555 -2 -638 -15 -646 -21 -12 -21 -102
0 -93 13 5 15 -18 15 -168 0 -191 -1 -189 68 -216 39 -15 92 -73 92 -100 0
-20 22 -20 2927 -18 2919 3 2928 3 2931 23 6 31 58 80 111 105 l48 22 6 237
c3 130 3 440 -1 689 -4 248 -3 452 1 452 5 0 7 20 6 45 -3 42 0 47 39 81 59
50 82 99 82 174 0 98 -41 169 -122 211 -40 20 -154 26 -193 9z m175 -55 c58
-30 93 -89 93 -160 0 -61 -21 -105 -68 -140 -134 -103 -322 15 -285 179 26
116 154 175 260 121z m-5912 -19 c-49 -37 -124 -114 -164 -169 l-44 -61 0 54
0 55 57 30 c33 17 66 44 82 67 20 29 33 37 56 37 27 0 28 -1 13 -13z m5587 -6
c21 -11 29 -22 26 -35 -2 -11 -6 -52 -8 -91 -4 -58 -1 -79 15 -110 42 -81 113
-124 205 -124 53 0 55 -1 61 -31 11 -58 10 -59 -48 -59 -39 0 -55 -4 -60 -15
-9 -25 -67 -55 -86 -45 -10 5 -33 7 -53 3 -27 -4 -49 2 -96 26 l-62 31 -2646
0 -2646 0 -56 -27 c-38 -19 -72 -28 -106 -28 -27 0 -55 -3 -61 -7 -15 -10 -60
16 -56 33 2 8 1 11 -3 7 -4 -4 -14 -1 -22 7 -8 9 -33 15 -59 15 l-44 0 6 58
c9 82 71 188 166 285 53 55 82 77 93 73 9 -3 13 -2 10 4 -6 10 23 28 64 41 14
4 1243 7 2731 6 2416 -2 2708 -4 2735 -17z m-5723 -526 c17 -14 44 -28 60 -31
15 -3 31 -10 34 -14 7 -12 47 -12 59 0 6 4 32 14 59 20 27 7 66 21 87 31 38
20 80 20 2671 20 2200 0 2637 -2 2653 -14 11 -7 45 -21 75 -30 30 -9 63 -21
72 -27 22 -11 55 -12 62 0 3 4 18 11 33 14 16 3 45 17 66 31 21 14 48 26 60
26 22 0 22 0 20 -185 -2 -129 -9 -231 -25 -338 -17 -117 -23 -208 -26 -395
l-3 -244 -38 -51 c-61 -84 -153 -163 -216 -186 l-56 -21 -2697 2 -2697 3 -50
26 c-68 37 -135 97 -188 172 l-44 62 -6 285 c-5 216 -11 315 -26 410 -15 89
-21 173 -21 293 l0 167 26 0 c14 0 40 -11 56 -26z m-63 -874 c0 -129 -3 -190
-9 -180 -6 9 -9 113 -8 250 0 154 3 216 8 180 5 -30 8 -143 9 -250z m6074 60
c-1 -127 -7 -238 -12 -248 -11 -20 -8 383 4 441 4 20 8 37 9 37 1 0 1 -104 -1
-230z m2 -386 l-1 -57 -46 -23 c-25 -13 -64 -44 -86 -69 -30 -34 -46 -45 -68
-45 l-29 1 30 22 c17 12 48 39 71 59 23 21 45 34 49 30 5 -4 5 -2 2 5 -5 8 68
133 78 133 0 0 0 -25 0 -56z m-6053 -1 c43 -64 104 -130 152 -165 l39 -28 -36
0 c-27 0 -37 5 -42 20 -8 26 -81 87 -122 102 -32 12 -33 14 -33 65 0 29 2 53
5 53 2 0 19 -21 37 -47z"/>
</g>
<g transform="translate(0.000000,212.000000) scale(0.100000,-0.100000)"
fill="#e5e5e5" stroke="none">
<path d="M6035 2091 c-12 -6 -1203 -10 -2927 -10 -2862 -1 -2908 -1 -2908 -20
0 -30 -45 -77 -97 -101 -27 -12 -54 -29 -60 -38 -9 -11 -13 -65 -13 -184 0
-158 1 -168 19 -168 20 0 31 25 31 75 0 44 80 174 157 255 46 49 85 80 131
102 l67 33 2685 0 c2590 0 2687 -1 2738 -19 51 -17 53 -19 45 -45 -4 -14 -8
-60 -8 -102 0 -66 4 -81 28 -117 43 -65 96 -95 181 -102 46 -3 71 -9 72 -17 1
-7 2 -24 3 -38 0 -15 7 -25 16 -25 11 0 15 12 16 48 0 43 3 49 41 77 23 17 52
50 66 75 34 64 29 168 -11 228 -44 67 -97 96 -181 99 -39 2 -80 -1 -91 -6z
m130 -42 c113 -32 167 -174 101 -272 -66 -98 -194 -111 -277 -28 -96 96 -61
251 68 296 47 17 58 18 108 4z m-5865 -27 c-51 -34 -142 -128 -181 -185 l-39
-59 0 59 0 60 40 18 c40 18 120 95 120 115 0 5 19 10 43 9 l42 0 -25 -17z"/>
<path d="M37 1553 c-4 -3 -7 -210 -7 -458 0 -390 -2 -454 -15 -465 -21 -17
-21 -92 0 -84 12 5 15 -20 17 -173 l3 -178 45 -22 c58 -29 108 -76 112 -105
l3 -23 2924 0 2925 0 8 31 c10 38 28 55 98 91 l55 29 3 682 2 682 -62 0 c-56
0 -65 -3 -94 -31 -21 -20 -42 -31 -58 -30 -14 1 -33 1 -41 1 -8 0 -26 0 -39
-1 -14 -1 -55 13 -91 30 l-67 31 -2638 0 -2637 0 -67 -30 c-45 -21 -81 -30
-109 -29 -23 1 -46 0 -52 -1 -25 -6 -47 2 -78 30 -29 25 -43 30 -84 30 -27 0
-53 -3 -56 -7z m116 -66 c50 -37 125 -61 150 -49 12 5 51 20 87 32 36 12 69
26 75 31 5 5 1120 9 2645 9 l2636 0 69 -30 c39 -16 78 -30 88 -30 9 0 26 -5
37 -12 20 -13 23 -12 113 32 26 12 47 27 47 31 0 5 16 9 35 9 l35 0 0 -157 c0
-146 -18 -329 -50 -504 -5 -30 -10 -155 -10 -278 l0 -222 -31 -46 c-47 -68
-128 -144 -189 -178 l-55 -30 -2715 0 -2715 0 -47 23 c-62 31 -140 102 -195
176 l-43 60 0 221 c0 168 -5 257 -22 380 -13 99 -23 235 -25 358 l-5 197 27 0
c14 0 41 -11 58 -23z m6002 -1055 c-14 -25 -15 -7 -10 198 7 340 19 385 23 82
2 -211 0 -257 -13 -280z m-6066 223 c5 -198 4 -242 -7 -228 -9 12 -12 80 -12
252 0 129 3 231 7 228 3 -4 9 -118 12 -252z m6081 -368 c0 -62 0 -63 -34 -75
-40 -15 -126 -88 -126 -108 0 -10 -12 -14 -37 -14 l-38 0 35 27 c52 41 125
121 162 180 18 29 34 52 36 53 1 0 2 -28 2 -63z m-5991 -91 c14 -16 48 -46 74
-67 l49 -39 -34 0 c-29 0 -39 6 -59 37 -15 22 -46 49 -81 67 l-58 31 0 59 0
59 41 -59 c23 -32 53 -72 68 -88z"/>
</g>
<g transform="translate(0.000000,212.000000) scale(0.100000,-0.100000)"
fill="#dadada" stroke="none">
<path d="M6045 2090 c-11 -5 -1331 -9 -2932 -9 -2889 -1 -2913 -1 -2913 -21 0
-30 -53 -83 -109 -110 l-51 -23 0 -179 c0 -144 3 -178 14 -178 14 0 26 41 26
87 0 50 124 231 200 292 22 18 63 44 92 59 l52 27 2701 0 2700 0 47 -22 48
-22 -15 -35 c-33 -78 -12 -180 50 -241 45 -45 97 -65 174 -65 l51 0 0 -40 c0
-29 4 -40 15 -40 11 0 15 12 15 50 0 45 3 51 29 65 58 29 101 111 101 188 0
133 -97 228 -231 226 -24 0 -53 -4 -64 -9z m133 -44 c50 -18 98 -70 112 -123
38 -133 -90 -261 -223 -223 -74 20 -134 95 -136 169 -3 97 86 189 184 189 17
0 45 -5 63 -12z m-5878 -24 c-53 -36 -125 -110 -171 -176 l-49 -69 0 61 0 62
48 24 c47 24 112 86 112 106 0 6 19 10 43 9 l42 0 -25 -17z"/>
<path d="M37 1553 c-4 -3 -7 -213 -7 -465 0 -398 -2 -459 -15 -464 -10 -4 -15
-19 -14 -48 0 -22 3 -35 6 -28 16 40 23 -7 23 -161 0 -195 -5 -181 82 -230 41
-24 101 -87 82 -87 -3 0 -1 -7 6 -15 11 -13 351 -15 2922 -15 l2909 0 14 34
c17 40 55 74 113 100 25 11 44 28 47 40 3 12 4 318 3 681 l-3 660 -51 3 c-42
2 -57 -1 -80 -21 -46 -38 -65 -44 -129 -42 -43 2 -79 12 -127 34 l-66 31
-2626 0 -2626 0 -82 -34 c-66 -27 -94 -33 -138 -31 -71 3 -61 0 -105 35 -30
24 -48 30 -85 30 -26 0 -50 -3 -53 -7z m102 -56 c6 -8 30 -22 53 -32 24 -9 53
-22 66 -28 15 -7 29 -7 45 1 12 6 40 16 62 23 22 6 57 20 77 30 36 18 121 19
2669 19 l2632 0 86 -31 c47 -17 96 -36 108 -42 16 -7 31 -6 55 5 18 9 43 19
54 22 12 4 29 15 39 26 11 13 31 20 52 20 l34 0 -3 -187 c-4 -177 -28 -420
-49 -489 -5 -17 -9 -134 -9 -261 l0 -230 -51 -67 c-61 -80 -146 -150 -214
-174 -47 -16 -204 -17 -2735 -17 l-2685 0 -55 26 c-64 30 -153 108 -207 182
l-38 51 -6 256 c-4 159 -13 298 -23 370 -10 66 -20 206 -23 328 l-5 212 30 0
c16 0 35 -6 41 -13z m6019 -1063 c-11 -25 -13 -2 -16 161 -2 105 2 217 8 251
5 33 11 76 12 95 2 19 4 -81 5 -222 3 -191 0 -264 -9 -285z m-6068 386 c6 0
10 -83 10 -207 -1 -185 -2 -206 -15 -189 -12 16 -15 63 -13 265 1 135 3 220 5
189 2 -32 8 -58 13 -58z m6080 -533 l0 -63 -40 -18 c-52 -23 -97 -61 -116 -97
-13 -25 -20 -29 -57 -28 l-42 0 25 17 c51 34 146 133 185 191 22 33 41 61 43
61 1 0 2 -28 2 -63z m-6027 -44 c27 -35 75 -85 108 -110 32 -26 59 -48 59 -50
0 -1 -17 -3 -37 -3 -34 1 -41 5 -64 43 -18 30 -42 51 -82 72 l-57 30 1 60 c0
50 2 57 12 41 7 -10 34 -47 60 -83z"/>
</g>
<g transform="translate(0.000000,212.000000) scale(0.100000,-0.100000)"
fill="#797576" stroke="none">
<path d="M6035 2085 c-34 -13 -440 -15 -2937 -15 -2864 0 -2898 0 -2898 -19 0
-30 -39 -68 -100 -99 l-55 -29 -3 -176 c-2 -153 0 -177 13 -177 11 0 15 11 15
46 0 103 165 325 290 390 l55 29 2710 0 2710 0 41 -22 42 -22 -14 -38 c-54
-154 72 -318 231 -301 l43 5 7 -43 c8 -57 25 -57 25 1 0 41 5 49 54 97 101 98
103 223 7 319 -66 67 -148 85 -236 54z m152 -40 c50 -21 72 -42 94 -90 33 -71
15 -170 -37 -217 -52 -46 -137 -60 -201 -33 -50 21 -72 42 -94 90 -31 67 -19
155 29 209 45 50 141 69 209 41z m-5915 -49 c-51 -38 -91 -84 -184 -208 -17
-22 -17 -22 -18 43 0 65 1 67 30 79 50 21 108 67 125 100 14 27 20 30 61 30
l46 0 -60 -44z"/>
<path d="M38 1089 c-5 -415 -7 -462 -22 -471 -20 -11 -23 -63 -2 -55 16 6 26
-95 26 -260 l0 -103 49 -24 c58 -30 111 -80 111 -107 0 -19 45 -19 2918 -19
l2917 1 20 41 c16 33 33 49 83 76 l62 34 2 131 c2 73 3 376 3 674 l0 543 -59
0 c-50 0 -63 -4 -91 -29 -31 -27 -39 -29 -107 -27 -57 2 -86 8 -128 29 l-54
27 -2644 0 -2645 0 -56 -27 c-73 -35 -183 -41 -230 -12 -17 10 -31 23 -31 29
0 6 -26 10 -59 10 l-58 0 -5 -461z m117 401 c10 -11 27 -22 39 -26 11 -3 36
-13 54 -22 25 -11 36 -12 45 -3 6 6 17 11 25 11 7 0 47 14 89 30 l75 30 2638
0 2638 0 56 -25 c31 -14 62 -25 69 -25 7 0 25 -7 42 -16 20 -10 35 -12 50 -6
11 5 39 18 63 27 23 10 47 24 53 32 6 7 27 13 46 13 l35 0 -5 -202 c-3 -129
-12 -258 -25 -353 -17 -116 -22 -201 -22 -376 l0 -227 -43 -58 c-58 -79 -140
-151 -207 -183 l-55 -26 -2700 0 -2700 0 -57 28 c-63 31 -156 117 -206 190
l-32 46 0 222 c0 123 -4 248 -10 278 -29 160 -50 380 -50 514 l0 147 38 0 c26
0 45 -7 57 -20z m-75 -581 c0 -25 5 -59 10 -75 6 -18 9 -113 8 -234 -3 -204
-3 -205 -20 -168 -16 33 -18 70 -18 295 0 170 4 253 10 243 5 -8 10 -36 10
-61z m6076 -487 c-14 -25 -15 -10 -16 163 0 105 6 237 12 295 l13 105 3 -268
c2 -221 0 -272 -12 -295z m-6046 -128 c34 -54 139 -162 190 -196 l25 -17 -47
0 c-37 -1 -48 3 -52 17 -9 27 -60 73 -114 103 l-47 26 -1 61 c-1 34 1 62 5 62
3 -1 22 -26 41 -56z m6060 -6 l0 -63 -56 -29 c-52 -28 -104 -79 -104 -104 0
-8 -18 -12 -47 -12 l-48 1 30 21 c51 36 141 132 180 192 21 31 39 56 41 56 2
0 4 -28 4 -62z"/>
</g>
<g transform="translate(0.000000,212.000000) scale(0.100000,-0.100000)"
fill="#252525" stroke="none">
<path d="M6060 2087 c-25 -8 -843 -12 -2942 -14 l-2906 -3 -7 -32 c-8 -36 -30
-57 -95 -90 -25 -13 -50 -30 -57 -38 -15 -18 -18 -340 -4 -340 6 0 13 21 16
48 9 69 55 160 126 248 57 69 125 124 195 156 l49 23 2690 0 2690 0 53 -24
c46 -21 53 -27 47 -45 -31 -103 -27 -156 19 -224 42 -62 109 -97 187 -96 l57
1 10 -46 10 -46 1 51 c1 47 3 52 44 81 90 63 118 193 64 286 -32 54 -71 84
-134 103 -53 16 -65 16 -113 1z m157 -52 c46 -28 93 -107 93 -160 0 -17 -12
-55 -26 -83 -71 -143 -267 -143 -338 0 -33 65 -33 101 0 166 52 105 167 137
271 77z m-5907 -13 c-72 -56 -134 -119 -178 -182 -25 -36 -49 -69 -54 -75 -4
-5 -8 23 -8 63 l0 72 42 21 c51 25 95 64 114 102 13 24 20 27 67 27 l52 -1
-35 -27z m5648 16 c-3 -7 -11 -13 -18 -13 -7 0 -15 6 -17 13 -3 7 4 12 17 12
13 0 20 -5 18 -12z"/>
<path d="M40 1085 c0 -454 0 -465 -20 -475 -27 -14 -27 -44 0 -35 19 6 20 2
20 -172 1 -124 4 -183 13 -194 11 -14 45 -33 57 -31 3 0 23 -12 45 -27 29 -19
42 -37 48 -64 l9 -37 2914 0 2914 0 0 28 c0 35 33 68 103 102 l52 25 3 673 2
672 -52 0 c-45 0 -56 -4 -85 -32 -32 -31 -37 -32 -111 -32 -67 1 -85 5 -137
32 l-60 32 -2636 0 c-2331 0 -2638 -2 -2649 -15 -7 -8 -19 -15 -27 -15 -8 0
-33 -8 -56 -19 -30 -13 -61 -18 -110 -16 -61 2 -72 5 -101 34 -27 27 -39 31
-84 31 l-52 0 0 -465z m110 411 c39 -33 128 -60 154 -48 12 5 41 15 66 22 25
6 60 20 78 31 32 19 90 19 2667 19 l2633 0 64 -30 c34 -16 71 -30 80 -30 9 0
28 -5 41 -11 31 -14 111 11 148 47 20 19 35 25 60 22 l34 -3 0 -175 c0 -162
-9 -264 -45 -486 -6 -34 -10 -162 -10 -285 l0 -224 -52 -68 c-58 -79 -130
-139 -204 -174 l-51 -23 -2704 2 -2704 3 -49 24 c-59 29 -164 125 -206 188
l-30 46 0 239 c0 149 -4 238 -10 238 -6 0 -11 -84 -12 -217 -3 -214 -3 -217
-20 -186 -16 29 -18 64 -17 325 1 286 8 336 25 163 5 -44 10 -68 12 -53 2 15
-6 94 -17 176 -15 102 -21 200 -21 320 l0 172 31 0 c18 0 43 -10 59 -24z
m6014 -1068 c-9 -21 -21 -38 -26 -38 -11 0 -11 427 0 434 5 3 12 43 15 90 14
171 22 114 25 -164 2 -249 0 -290 -14 -322z m-6057 -121 c46 -75 116 -151 175
-189 l51 -33 -49 -3 c-39 -3 -51 0 -59 15 -18 33 -74 81 -120 103 l-45 22 0
69 c0 38 3 69 8 69 4 0 21 -24 39 -53z m6073 -15 l0 -68 -43 -21 c-55 -26
-106 -70 -117 -99 -7 -18 -18 -23 -59 -25 -28 -2 -51 -1 -51 3 0 3 15 16 34
27 46 29 158 149 191 205 15 25 31 46 36 46 5 0 9 -31 9 -68z"/>
</g>
</g></svg>